# Created by FreeCAD <https://www.freecad.org>
v -13.063659 0.133975 0.000000
v -12.863659 0.480385 0.000000
v -12.563659 -0.000000 0.000000
v -13.429685 0.500000 0.000000
v -13.083274 0.700000 0.000000
v -13.563659 1.000000 0.000000
v -13.163659 1.000000 0.000000
v -12.563659 0.400000 0.000000
v -5.000000 0.400000 0.000000
v -5.000000 -0.000000 0.000000
v -3.809433 0.556741 0.000000
v -3.705905 0.170371 0.000000
v -2.700000 1.016283 0.000000
v -2.500000 0.669873 0.000000
v -1.747309 1.747309 0.000000
v -1.464466 1.464466 0.000000
v -1.016283 2.700000 0.000000
v -0.669873 2.500000 0.000000
v -13.563659 15.878005 0.000000
v -13.163659 15.678005 0.000000
v -13.402889 16.478004 0.000000
v -13.029684 16.178005 0.000000
v -0.556741 3.809433 0.000000
v -0.170371 3.705905 0.000000
v -12.963659 16.917236 0.000000
v -12.663659 16.544031 0.000000
v -0.400000 5.000000 0.000000
v -12.363659 17.078005 0.000000
v -12.163659 16.678005 0.000000
v 0.000000 5.000000 0.000000
v -0.400000 15.678005 0.000000
v -0.533975 16.178005 0.000000
v 0.000000 15.878005 0.000000
v -1.200000 17.078005 0.000000
v -1.400000 16.678005 0.000000
v -0.900000 16.544031 0.000000
v -0.600000 16.917236 0.000000
v -0.160770 16.478004 0.000000
v 0.000000 5.000000 8.600000
v 0.000000 15.878005 8.600000
v -0.160770 16.478004 8.600000
v -0.600000 16.917236 8.600000
v -1.200000 17.078005 8.600000
v -0.170371 3.705905 8.600000
v -0.669873 2.500000 8.600000
v -1.464466 1.464466 8.600000
v -2.500000 0.669873 8.600000
v -3.705905 0.170371 8.600000
v -5.000000 -0.000000 8.600000
v -1.226795 17.078005 8.700000
v -1.400000 17.078005 8.800000
v -1.300000 17.078005 8.773205
v -12.363659 17.078005 8.800000
v -12.563659 0.000000 8.600000
v -13.563659 15.878005 9.000000
v -13.402889 16.478004 8.933333
v -12.963659 16.917236 8.866667
v -13.063659 0.133975 8.600000
v -13.429685 0.500000 8.600000
v -13.563659 1.000000 8.600000
v -13.563659 1.400000 9.000000
v -13.563659 1.053590 8.800000
v -13.563659 1.200000 8.946410
v -13.163659 1.400000 9.000000
v -13.163659 15.678005 9.000000
v -13.163659 1.000000 8.600000
v -13.163659 1.200000 8.946410
v -13.163659 1.053590 8.800000
v -12.163659 16.678005 8.600000
v -12.663659 16.544031 8.733334
v -13.029684 16.178005 8.866667
v -12.563659 0.400000 8.600000
v -12.863659 0.480385 8.600000
v -13.083274 0.700000 8.600000
v -1.400000 16.678005 8.600000
v -5.000000 0.400000 8.600000
v -0.900000 16.544031 8.600000
v -0.533975 16.178005 8.600000
v -0.400000 15.678005 8.600000
v -0.400000 5.000000 8.600000
v -0.556741 3.809433 8.600000
v -1.016283 2.700000 8.600000
v -1.747309 1.747309 8.600000
v -2.700000 1.016283 8.600000
v -3.809433 0.556741 8.600000
v -0.187564 15.878005 9.300000
v -0.187564 5.000000 9.300000
v -0.700000 15.878005 9.812435
v -0.700000 5.000000 9.812435
v -1.400000 15.878005 10.000000
v -1.400000 5.000000 10.000000
v -0.255100 16.478004 9.074233
v -0.523732 16.478004 9.476268
v -0.660896 16.917236 8.906147
v -0.925767 16.478004 9.744900
v -1.400000 16.478004 9.839231
v -0.834315 16.917236 9.165686
v -1.093853 16.917236 9.339104
v -1.400000 16.917236 9.400000
v -1.576197 3.887539 10.000000
v -3.754450 0.351544 9.300000
v -5.000000 0.187564 9.300000
v -3.887078 0.846519 9.812435
v -5.000000 0.700000 9.812435
v -5.000000 1.400000 10.000000
v -3.887539 1.576197 10.000000
v -2.593782 0.832309 9.300000
v -2.171321 1.106658 9.300000
v -2.850000 1.276091 9.812435
v -2.883973 2.087539 10.000000
v -1.597094 1.597094 9.300000
v -2.472523 1.521227 9.812435
v -1.106658 2.171321 9.300000
v -1.959441 1.959441 9.812435
v -2.087539 2.883973 10.000000
v -0.832309 2.593782 9.300000
v -1.521227 2.472523 9.812435
v -1.276091 2.850000 9.812435
v -0.423102 3.512876 9.300000
v -0.910457 3.671227 9.812435
v -12.496992 16.478010 9.839233
v -12.563659 15.878005 10.000000
v -12.430326 16.917238 9.400005
v -12.563659 0.187564 9.300000
v -12.563659 0.700000 9.812435
v -12.563659 1.400000 10.000000
v -12.757295 16.115088 9.952636
v -13.063659 15.878005 9.866025
v -13.164034 16.118061 9.760422
v -13.429685 15.878005 9.500000
v -12.675138 16.558702 9.765465
v -13.443092 16.117069 9.407452
v -13.516295 16.115088 9.193635
v -13.023888 16.572718 9.593719
v -12.562342 16.888025 9.431006
v -13.259135 16.568047 9.296705
v -13.329123 16.558702 9.111480
v -12.787078 16.900284 9.307748
v -12.432704 17.056919 9.015796
v -12.939683 16.896196 9.119683
v -12.994666 16.888025 8.998683
v -12.507094 17.058889 8.969437
v -12.556393 17.058233 8.910518
v -12.579454 17.056919 8.869044
v -13.063659 1.400000 9.866025
v -13.063659 0.915513 9.769655
v -13.063659 0.504785 9.495215
v -13.429685 1.400000 9.500000
v -13.429685 1.055585 9.431492
v -13.063659 0.230345 9.084487
v -13.429685 0.763604 9.236396
v -13.429685 0.568508 8.944415
v -12.563659 1.400000 9.600000
v -12.863659 1.400000 9.519615
v -12.563659 15.678005 9.600000
v -12.949331 15.678005 9.459626
v -13.083274 1.400000 9.300000
v -13.107444 15.678005 9.253571
v -12.563659 0.900000 9.466025
v -12.949331 1.105990 9.407784
v -13.083274 1.218827 9.276148
v -12.987923 0.987868 9.313833
v -12.863659 0.695534 9.191117
v -12.563659 0.533975 9.100000
v -12.987923 0.817157 9.182842
v -13.083274 0.950049 9.136231
v -12.987923 0.686166 9.012132
v -12.863659 0.511720 8.838014
v -13.023286 0.661709 8.868716
v -12.296992 16.544033 9.100004
v -12.294516 16.662075 8.748721
v -12.328599 16.661528 8.708294
v -12.345064 16.660433 8.679892
v -12.430326 16.178009 9.466028
v -12.397202 16.519690 9.131084
v -12.552626 16.529903 9.047264
v -12.657542 16.526499 8.916957
v -12.694744 16.519690 8.833544
v -12.536753 16.245253 9.413017
v -12.774158 16.256931 9.301384
v -12.932518 16.253038 9.098536
v -12.976677 16.245253 8.973093
v -12.650787 15.875573 9.568473
v -12.911164 15.878051 9.449888
v -13.088212 15.877225 9.223543
v -13.132132 15.875573 9.087129
v -1.400000 16.544031 9.100000
v -1.400000 16.178005 9.466025
v -1.400000 15.678005 9.600000
v -5.000000 0.533975 9.100000
v -5.000000 0.900000 9.466025
v -5.000000 1.400000 9.600000
v -0.917037 16.544031 8.729409
v -1.046447 16.544031 8.953553
v -1.270590 16.544031 9.082963
v -0.650000 16.178005 9.033012
v -0.533975 15.678005 9.100000
v -0.966987 16.178005 9.350000
v -0.900000 15.678005 9.466025
v -0.533975 5.000000 9.100000
v -3.844108 0.686151 9.100000
v -3.938842 1.039704 9.466025
v -3.887539 1.576197 9.600000
v -2.766987 1.132309 9.100000
v -2.374936 1.386910 9.100000
v -2.883973 2.087539 9.600000
v -2.950000 1.449296 9.466025
v -2.590080 1.683030 9.466025
v -1.842043 1.842043 9.100000
v -2.087539 2.883973 9.600000
v -2.100862 2.100862 9.466025
v -1.386910 2.374936 9.100000
v -1.132309 2.766987 9.100000
v -1.683030 2.590080 9.466025
v -1.576197 3.887539 9.600000
v -1.449296 2.950000 9.466025
v -0.752557 3.619922 9.100000
v -1.100668 3.733030 9.466025
v -0.900000 5.000000 9.466025
v -1.400000 5.000000 9.600000
v -13.063659 0.133975 0.000000
v -12.863659 0.480385 0.000000
v -12.563659 -0.000000 0.000000
v -13.429685 0.500000 0.000000
v -13.083274 0.700000 0.000000
v -13.563659 1.000000 0.000000
v -13.163659 1.000000 0.000000
v -12.563659 0.400000 0.000000
v -5.000000 0.400000 0.000000
v -5.000000 -0.000000 0.000000
v -3.809433 0.556741 0.000000
v -3.705905 0.170371 0.000000
v -2.700000 1.016283 0.000000
v -2.500000 0.669873 0.000000
v -1.747309 1.747309 0.000000
v -1.464466 1.464466 0.000000
v -1.016283 2.700000 0.000000
v -0.669873 2.500000 0.000000
v -13.563659 15.878005 0.000000
v -13.163659 15.678005 0.000000
v -13.402889 16.478004 0.000000
v -13.029684 16.178005 0.000000
v -0.556741 3.809433 0.000000
v -0.170371 3.705905 0.000000
v -12.963659 16.917236 0.000000
v -12.663659 16.544031 0.000000
v -0.400000 5.000000 0.000000
v -12.363659 17.078005 0.000000
v -12.163659 16.678005 0.000000
v 0.000000 5.000000 0.000000
v -0.400000 15.678005 0.000000
v -0.533975 16.178005 0.000000
v 0.000000 15.878005 0.000000
v -1.200000 17.078005 0.000000
v -1.400000 16.678005 0.000000
v -0.900000 16.544031 0.000000
v -0.600000 16.917236 0.000000
v -0.160770 16.478004 0.000000
v 0.000000 5.000000 8.600000
v 0.000000 15.878005 8.600000
v -0.160770 16.478004 8.600000
v -0.600000 16.917236 8.600000
v -1.200000 17.078005 8.600000
v -0.170371 3.705905 8.600000
v -0.669873 2.500000 8.600000
v -1.464466 1.464466 8.600000
v -2.500000 0.669873 8.600000
v -3.705905 0.170371 8.600000
v -5.000000 -0.000000 8.600000
v -1.226795 17.078005 8.700000
v -1.400000 17.078005 8.800000
v -1.300000 17.078005 8.773205
v -12.363659 17.078005 8.800000
v -12.563659 0.000000 8.600000
v -13.563659 15.878005 9.000000
v -13.402889 16.478004 8.933333
v -12.963659 16.917236 8.866667
v -13.063659 0.133975 8.600000
v -13.429685 0.500000 8.600000
v -13.563659 1.000000 8.600000
v -13.563659 1.400000 9.000000
v -13.563659 1.053590 8.800000
v -13.563659 1.200000 8.946410
v -13.163659 1.400000 9.000000
v -13.163659 15.678005 9.000000
v -13.163659 1.000000 8.600000
v -13.163659 1.200000 8.946410
v -13.163659 1.053590 8.800000
v -12.163659 16.678005 8.600000
v -12.663659 16.544031 8.733334
v -13.029684 16.178005 8.866667
v -12.563659 0.400000 8.600000
v -12.863659 0.480385 8.600000
v -13.083274 0.700000 8.600000
v -1.400000 16.678005 8.600000
v -5.000000 0.400000 8.600000
v -0.900000 16.544031 8.600000
v -0.533975 16.178005 8.600000
v -0.400000 15.678005 8.600000
v -0.400000 5.000000 8.600000
v -0.556741 3.809433 8.600000
v -1.016283 2.700000 8.600000
v -1.747309 1.747309 8.600000
v -2.700000 1.016283 8.600000
v -3.809433 0.556741 8.600000
v -0.187564 15.878005 9.300000
v -0.187564 5.000000 9.300000
v -0.700000 15.878005 9.812435
v -0.700000 5.000000 9.812435
v -1.400000 15.878005 10.000000
v -1.400000 5.000000 10.000000
v -0.255100 16.478004 9.074233
v -0.523732 16.478004 9.476268
v -0.660896 16.917236 8.906147
v -0.925767 16.478004 9.744900
v -1.400000 16.478004 9.839231
v -0.834315 16.917236 9.165686
v -1.093853 16.917236 9.339104
v -1.400000 16.917236 9.400000
v -1.576197 3.887539 10.000000
v -3.754450 0.351544 9.300000
v -5.000000 0.187564 9.300000
v -3.887078 0.846519 9.812435
v -5.000000 0.700000 9.812435
v -5.000000 1.400000 10.000000
v -3.887539 1.576197 10.000000
v -2.593782 0.832309 9.300000
v -2.171321 1.106658 9.300000
v -2.850000 1.276091 9.812435
v -2.883973 2.087539 10.000000
v -1.597094 1.597094 9.300000
v -2.472523 1.521227 9.812435
v -1.106658 2.171321 9.300000
v -1.959441 1.959441 9.812435
v -2.087539 2.883973 10.000000
v -0.832309 2.593782 9.300000
v -1.521227 2.472523 9.812435
v -1.276091 2.850000 9.812435
v -0.423102 3.512876 9.300000
v -0.910457 3.671227 9.812435
v -12.496992 16.478010 9.839233
v -12.563659 15.878005 10.000000
v -12.430326 16.917238 9.400005
v -12.563659 0.187564 9.300000
v -12.563659 0.700000 9.812435
v -12.563659 1.400000 10.000000
v -12.757295 16.115088 9.952636
v -13.063659 15.878005 9.866025
v -13.164034 16.118061 9.760422
v -13.429685 15.878005 9.500000
v -12.675138 16.558702 9.765465
v -13.443092 16.117069 9.407452
v -13.516295 16.115088 9.193635
v -13.023888 16.572718 9.593719
v -12.562342 16.888025 9.431006
v -13.259135 16.568047 9.296705
v -13.329123 16.558702 9.111480
v -12.787078 16.900284 9.307748
v -12.432704 17.056919 9.015796
v -12.939683 16.896196 9.119683
v -12.994666 16.888025 8.998683
v -12.507094 17.058889 8.969437
v -12.556393 17.058233 8.910518
v -12.579454 17.056919 8.869044
v -13.063659 1.400000 9.866025
v -13.063659 0.915513 9.769655
v -13.063659 0.504785 9.495215
v -13.429685 1.400000 9.500000
v -13.429685 1.055585 9.431492
v -13.063659 0.230345 9.084487
v -13.429685 0.763604 9.236396
v -13.429685 0.568508 8.944415
v -12.563659 1.400000 9.600000
v -12.863659 1.400000 9.519615
v -12.563659 15.678005 9.600000
v -12.949331 15.678005 9.459626
v -13.083274 1.400000 9.300000
v -13.107444 15.678005 9.253571
v -12.563659 0.900000 9.466025
v -12.949331 1.105990 9.407784
v -13.083274 1.218827 9.276148
v -12.987923 0.987868 9.313833
v -12.863659 0.695534 9.191117
v -12.563659 0.533975 9.100000
v -12.987923 0.817157 9.182842
v -13.083274 0.950049 9.136231
v -12.987923 0.686166 9.012132
v -12.863659 0.511720 8.838014
v -13.023286 0.661709 8.868716
v -12.296992 16.544033 9.100004
v -12.294516 16.662075 8.748721
v -12.328599 16.661528 8.708294
v -12.345064 16.660433 8.679892
v -12.430326 16.178009 9.466028
v -12.397202 16.519690 9.131084
v -12.552626 16.529903 9.047264
v -12.657542 16.526499 8.916957
v -12.694744 16.519690 8.833544
v -12.536753 16.245253 9.413017
v -12.774158 16.256931 9.301384
v -12.932518 16.253038 9.098536
v -12.976677 16.245253 8.973093
v -12.650787 15.875573 9.568473
v -12.911164 15.878051 9.449888
v -13.088212 15.877225 9.223543
v -13.132132 15.875573 9.087129
v -1.400000 16.544031 9.100000
v -1.400000 16.178005 9.466025
v -1.400000 15.678005 9.600000
v -5.000000 0.533975 9.100000
v -5.000000 0.900000 9.466025
v -5.000000 1.400000 9.600000
v -0.917037 16.544031 8.729409
v -1.046447 16.544031 8.953553
v -1.270590 16.544031 9.082963
v -0.650000 16.178005 9.033012
v -0.533975 15.678005 9.100000
v -0.966987 16.178005 9.350000
v -0.900000 15.678005 9.466025
v -0.533975 5.000000 9.100000
v -3.844108 0.686151 9.100000
v -3.938842 1.039704 9.466025
v -3.887539 1.576197 9.600000
v -2.766987 1.132309 9.100000
v -2.374936 1.386910 9.100000
v -2.883973 2.087539 9.600000
v -2.950000 1.449296 9.466025
v -2.590080 1.683030 9.466025
v -1.842043 1.842043 9.100000
v -2.087539 2.883973 9.600000
v -2.100862 2.100862 9.466025
v -1.386910 2.374936 9.100000
v -1.132309 2.766987 9.100000
v -1.683030 2.590080 9.466025
v -1.576197 3.887539 9.600000
v -1.449296 2.950000 9.466025
v -0.752557 3.619922 9.100000
v -1.100668 3.733030 9.466025
v -0.900000 5.000000 9.466025
v -1.400000 5.000000 9.600000
vn 0.000000 0.000000 -1.000000
vn 0.000000 0.000000 -1.000000
vn 0.000000 -0.000000 -1.000000
vn 0.000000 0.000000 -1.000000
vn 0.000000 0.000000 -1.000000
vn 0.000000 0.000000 -1.000000
vn 0.000000 0.000000 -1.000000
vn 0.000000 0.000000 -1.000000
vn 0.000000 0.000000 -1.000000
vn 0.000000 0.000000 -1.000000
vn 0.000000 0.000000 -1.000000
vn 0.000000 0.000000 -1.000000
vn 0.000000 -0.000000 -1.000000
vn 0.000000 0.000000 -1.000000
vn 0.000000 0.000000 -1.000000
vn 0.000000 -0.000000 -1.000000
vn 0.000000 0.000000 -1.000000
vn 0.000000 0.000000 -1.000000
vn 0.000000 -0.000000 -1.000000
vn 0.000000 0.000000 -1.000000
vn 0.000000 -0.000000 -1.000000
vn 0.000000 0.000000 -1.000000
vn 0.000000 0.000000 -1.000000
vn 0.000000 0.000000 -1.000000
vn 0.000000 0.000000 -1.000000
vn 0.000000 0.000000 -1.000000
vn 0.000000 0.000000 -1.000000
vn 0.000000 0.000000 -1.000000
vn 0.000000 0.000000 -1.000000
vn 0.000000 0.000000 -1.000000
vn 0.000000 0.000000 -1.000000
vn 0.000000 0.000000 -1.000000
vn 0.000000 0.000000 -1.000000
vn 0.000000 0.000000 -1.000000
vn 0.000000 0.000000 -1.000000
vn 0.000000 0.000000 -1.000000
vn 0.000000 0.000000 -1.000000
vn 0.000000 0.000000 -1.000000
vn 1.000000 0.000000 0.000000
vn 1.000000 0.000000 -0.000000
vn 0.965926 0.258819 0.000000
vn 0.707108 0.707106 0.000000
vn 0.965926 0.258819 0.000000
vn 0.707108 0.707106 0.000000
vn 0.258818 0.965926 0.000000
vn 0.258818 0.965926 0.000000
vn 0.991445 -0.130526 0.000000
vn 0.923880 -0.382683 0.000000
vn 0.991445 -0.130526 0.000000
vn 0.793353 -0.608761 0.000000
vn 0.923880 -0.382683 0.000000
vn 0.608761 -0.793353 0.000000
vn 0.793353 -0.608761 0.000000
vn 0.382683 -0.923880 0.000000
vn 0.608761 -0.793353 0.000000
vn 0.130526 -0.991445 0.000000
vn 0.382683 -0.923880 0.000000
vn 0.130526 -0.991445 0.000000
vn 0.000000 1.000000 0.000000
vn 0.000000 1.000000 0.000000
vn 0.000000 1.000000 0.000000
vn 0.000000 1.000000 0.000000
vn 0.000000 1.000000 0.000000
vn -0.000000 -1.000000 0.000000
vn -0.000000 -1.000000 0.000000
vn -0.965926 0.258819 0.000000
vn -0.707108 0.707105 0.000000
vn -0.965926 0.258819 0.000000
vn -0.258817 0.965926 0.000000
vn -0.707108 0.707105 0.000000
vn -0.258817 0.965926 0.000000
vn -0.258819 -0.965926 0.000000
vn -0.258819 -0.965926 0.000000
vn -0.707106 -0.707107 0.000000
vn -0.707106 -0.707107 0.000000
vn -0.965926 -0.258818 0.000000
vn -0.965926 -0.258818 0.000000
vn -1.000000 0.000000 0.000000
vn -1.000000 0.000000 0.000000
vn -1.000000 0.000000 0.000000
vn -1.000000 0.000000 0.000000
vn -1.000000 0.000000 0.000000
vn 1.000000 -0.000000 0.000000
vn 1.000000 0.000000 0.000000
vn 1.000000 0.000000 0.000000
vn 1.000000 0.000000 0.000000
vn 1.000000 0.000000 0.000000
vn 0.258818 -0.965926 0.000000
vn 0.258818 -0.965926 0.000000
vn 0.707108 -0.707106 0.000000
vn 0.707108 -0.707106 0.000000
vn 0.965926 -0.258820 0.000000
vn 0.965926 -0.258820 0.000000
vn 0.258819 0.965926 0.000000
vn 0.258819 0.965926 -0.000000
vn 0.707107 0.707106 0.000000
vn 0.707107 0.707106 -0.000000
vn 0.965926 0.258820 0.000000
vn 0.965926 0.258820 -0.000000
vn 0.000000 -1.000000 0.000000
vn 0.000000 -1.000000 0.000000
vn 0.000000 1.000000 -0.000000
vn 0.000000 1.000000 0.000000
vn -0.258818 -0.965926 -0.000000
vn -0.258818 -0.965926 -0.000000
vn -0.707107 -0.707106 -0.000000
vn -0.965926 -0.258819 -0.000000
vn -0.707107 -0.707106 0.000000
vn -0.965926 -0.258819 -0.000000
vn -0.991445 0.130526 0.000000
vn -0.923880 0.382683 0.000000
vn -0.991445 0.130526 0.000000
vn -0.793353 0.608761 0.000000
vn -0.923880 0.382683 0.000000
vn -0.608761 0.793353 0.000000
vn -0.793353 0.608761 0.000000
vn -0.382683 0.923880 0.000000
vn -0.608761 0.793353 0.000000
vn -0.130526 0.991445 0.000000
vn -0.382683 0.923880 0.000000
vn -0.130526 0.991445 0.000000
vn -1.000000 0.000000 0.000000
vn -1.000000 0.000000 0.000000
vn 0.965926 0.000000 0.258819
vn 0.965926 0.000000 0.258819
vn 0.707106 0.000000 0.707107
vn 0.707106 0.000000 0.707107
vn 0.258820 0.000000 0.965926
vn 0.258820 0.000000 0.965926
vn 0.948576 0.254170 0.188684
vn 0.946040 0.201869 0.253491
vn 0.694876 0.185184 0.694877
vn 0.795823 0.289665 0.531752
vn 0.700216 0.700213 0.139282
vn 0.258475 0.964649 0.051414
vn 0.250010 0.965923 0.066990
vn 0.700216 0.700213 0.139282
vn 0.253491 0.201869 0.946040
vn 0.188683 0.254170 0.948576
vn 0.531753 0.289664 0.795823
vn 0.181092 0.966650 0.181092
vn 0.593614 0.700213 0.396641
vn 0.593614 0.700213 0.396640
vn 0.220314 0.964257 0.147209
vn 0.139280 0.700214 0.700215
vn 0.051414 0.964649 0.258475
vn 0.066991 0.965923 0.250009
vn 0.147209 0.964257 0.220314
vn 0.396641 0.700213 0.593614
vn 0.396640 0.700213 0.593615
vn 0.139282 0.700213 0.700216
vn 0.958209 -0.126151 0.256751
vn 0.258602 -0.040959 0.965115
vn 0.126151 -0.958209 0.256751
vn 0.126151 -0.958209 0.256751
vn 0.092692 -0.704062 0.704063
vn 0.034054 -0.258669 0.965365
vn 0.039397 -0.248742 0.967768
vn 0.092692 -0.704062 0.704063
vn 0.369855 -0.892909 0.256751
vn 0.369855 -0.892909 0.256752
vn 0.595863 -0.776543 0.204764
vn 0.526129 -0.810168 0.258488
vn 0.111767 -0.219355 0.969222
vn 0.271758 -0.656082 0.704063
vn 0.102553 -0.247585 0.963423
vn 0.271758 -0.656082 0.704063
vn 0.627448 -0.734647 0.258074
vn 0.459937 -0.538517 0.706015
vn 0.141144 -0.217342 0.965837
vn 0.385382 -0.593436 0.706622
vn 0.385382 -0.593436 0.706622
vn 0.776543 -0.595863 0.204764
vn 0.734647 -0.627448 0.258074
vn 0.172785 -0.172785 0.969686
vn 0.459937 -0.538517 0.706015
vn 0.168575 -0.197376 0.965725
vn 0.810168 -0.526129 0.258488
vn 0.197376 -0.168575 0.965725
vn 0.538517 -0.459937 0.706015
vn 0.538517 -0.459937 0.706015
vn 0.219355 -0.111767 0.969222
vn 0.217342 -0.141144 0.965837
vn 0.593436 -0.385382 0.706622
vn 0.593436 -0.385382 0.706622
vn 0.900757 -0.373106 0.222327
vn 0.882740 -0.393021 0.257495
vn 0.942470 -0.149273 0.299111
vn 0.702713 -0.111299 0.702714
vn 0.702713 -0.111299 0.702714
vn 0.258602 -0.040959 0.965115
vn 0.647746 -0.288395 0.705162
vn 0.237658 -0.105812 0.965568
vn 0.647746 -0.288395 0.705162
vn 0.000000 0.258819 0.965926
vn 0.000000 0.258813 0.965928
vn 0.000000 0.707106 0.707108
vn 0.000001 0.707107 0.707107
vn -0.000000 0.965926 0.258818
vn 0.000000 0.965927 0.258813
vn -0.000000 -0.965926 0.258819
vn 0.000000 -0.965926 0.258819
vn 0.000000 -0.258820 0.965926
vn 0.000000 -0.707106 0.707107
vn 0.000000 -0.707106 0.707107
vn 0.000000 -0.258820 0.965926
vn 0.070923 0.250801 0.965437
vn -0.258776 -0.018414 0.965762
vn -0.707022 0.015399 0.707024
vn -0.416011 0.214772 0.883633
vn 0.025776 0.704913 0.708825
vn -0.183713 0.410808 0.893021
vn -0.770075 0.192294 0.608282
vn -0.965762 -0.018416 0.258774
vn -0.965435 0.250806 -0.070935
vn -0.943844 0.071903 0.322472
vn -0.385237 0.420026 0.821688
vn -0.387689 0.418359 0.821385
vn 0.007677 0.711240 0.702908
vn -0.713035 0.424415 0.558080
vn -0.709890 0.427098 0.560039
vn -0.861015 0.417159 0.290914
vn -0.893026 0.410808 0.183688
vn -0.854625 0.422672 0.301601
vn -0.274383 0.737303 0.617332
vn -0.298463 0.728478 0.616635
vn 0.608739 0.746827 0.267743
vn -0.126487 0.932018 0.339622
vn -0.532814 0.740070 0.410373
vn -0.528295 0.742093 0.412556
vn -0.707829 0.706314 -0.009964
vn -0.629551 0.740222 0.236085
vn -0.706135 0.707519 -0.028105
vn -0.649573 0.731135 0.208560
vn -0.028563 0.995697 0.088152
vn -0.130250 0.934792 0.330452
vn -0.176681 0.929751 0.323028
vn -0.073348 0.996038 0.050279
vn -0.282083 0.936450 0.208543
vn -0.270551 0.938178 0.215926
vn -0.267745 0.746810 -0.608759
vn -0.339630 0.932019 0.126457
vn -0.091162 0.995652 0.019143
vn -0.349257 0.932121 0.095758
vn -0.316424 0.937276 0.146252
vn -0.254171 -0.188682 0.948576
vn -0.190641 -0.254073 0.948211
vn -0.170029 -0.696810 0.696811
vn -0.296626 -0.530566 0.794048
vn -0.700214 -0.139281 0.700215
vn -0.964649 -0.051414 0.258476
vn -0.966681 -0.066254 0.247262
vn -0.700214 -0.139280 0.700215
vn -0.190642 -0.948210 0.254072
vn -0.254170 -0.948576 0.188684
vn -0.296628 -0.794048 0.530566
vn -0.967625 -0.178469 0.178469
vn -0.700214 -0.396641 0.593613
vn -0.700214 -0.396640 0.593613
vn -0.963697 -0.148336 0.222001
vn -0.700214 -0.700215 0.139282
vn -0.964649 -0.258476 0.051414
vn -0.966681 -0.247262 0.066254
vn -0.963697 -0.222001 0.148336
vn -0.700214 -0.593614 0.396640
vn -0.700214 -0.700215 0.139282
vn -0.700214 -0.593613 0.396640
vn -0.258820 0.000000 0.965926
vn -0.258820 0.000000 0.965926
vn -0.707106 0.000000 0.707108
vn -0.965926 0.000000 0.258818
vn -0.707106 0.000000 0.707108
vn -0.965926 0.000000 0.258818
vn 0.258820 0.000000 -0.965926
vn 0.342021 -0.001896 -0.939690
vn 0.793352 -0.000637 -0.608763
vn 0.707106 0.001272 -0.707106
vn 0.976296 0.000000 -0.216440
vn 0.965925 0.000793 -0.258820
vn 0.250564 0.250563 -0.935113
vn 0.963611 0.258200 -0.069185
vn 0.705712 0.062788 -0.705712
vn 0.282290 0.268098 -0.921106
vn 0.965365 0.034055 -0.258670
vn 0.968688 0.064260 -0.239821
vn 0.735116 0.088491 -0.672141
vn 0.772063 0.221549 -0.595680
vn 0.382392 0.495425 -0.779956
vn 0.163792 0.697557 -0.697558
vn 0.382463 0.491113 -0.782643
vn 0.544197 0.510725 -0.665590
vn 0.968175 0.176971 -0.176971
vn 0.962146 0.125842 -0.241742
vn 0.826646 0.259836 -0.499142
vn 0.777483 0.382852 -0.498943
vn 0.632706 0.614367 -0.471420
vn 0.919124 0.380371 -0.102608
vn 0.814377 0.460412 -0.353287
vn 0.152562 0.954619 -0.255789
vn 0.256751 0.958209 -0.126151
vn 0.513373 0.761202 -0.396257
vn 0.319727 0.840452 -0.437511
vn 0.705957 0.705957 -0.057002
vn 0.671613 0.734563 -0.096707
vn 0.937296 0.306717 -0.165536
vn 0.919497 0.281202 -0.274683
vn 0.628586 0.726047 -0.278811
vn -0.241137 -0.919427 -0.310656
vn 0.069785 -0.996531 -0.045341
vn 0.353603 -0.666500 0.656310
vn 0.090311 -0.995816 -0.013969
vn 0.317416 -0.936681 -0.147904
vn -0.052783 -0.696442 -0.715669
vn 0.121498 -0.932920 -0.338967
vn 0.117157 -0.941635 -0.315592
vn 0.265467 -0.945406 -0.189039
vn 0.322533 -0.941196 -0.100610
vn 0.257838 -0.944278 -0.204592
vn 0.392395 -0.914304 -0.100369
vn -0.081783 -0.693633 -0.715671
vn 0.266814 -0.763741 -0.587802
vn 0.423383 -0.043290 -0.904916
vn 0.249451 -0.752727 -0.609242
vn 0.509705 -0.770329 -0.383137
vn 0.507802 -0.768762 -0.388770
vn 0.719042 -0.690551 0.078208
vn 0.709042 -0.703457 0.049070
vn 0.623687 -0.750992 -0.216856
vn 0.633213 -0.753672 -0.176128
vn 0.921096 -0.236079 -0.309594
vn -0.147688 -0.219040 -0.964474
vn 0.342022 0.000879 -0.939692
vn 0.303345 -0.440812 -0.844788
vn 0.350111 -0.519287 -0.779591
vn 0.410398 -0.122290 -0.903669
vn 0.782344 -0.166007 -0.600316
vn 0.700474 -0.469100 -0.537849
vn 0.775474 -0.177450 -0.605930
vn 0.871687 -0.435730 -0.224282
vn 0.697877 -0.465654 -0.544182
vn 0.964471 -0.219044 0.147698
vn 0.974523 -0.060235 -0.216047
vn 0.943440 -0.136608 -0.302093
vn 0.838480 -0.476611 -0.264183
vn 0.000000 -0.965926 -0.258818
vn -0.000000 -0.707106 -0.707108
vn -0.000000 -0.965927 -0.258813
vn -0.000000 -0.258820 -0.965926
vn -0.000000 -0.707107 -0.707107
vn 0.000000 -0.258813 -0.965928
vn 0.000000 0.965926 -0.258819
vn 0.000000 0.965926 -0.258819
vn 0.000000 0.707106 -0.707107
vn 0.000000 0.707106 -0.707107
vn 0.000000 0.258820 -0.965926
vn 0.000000 0.258820 -0.965926
vn -0.258668 -0.965366 -0.034054
vn -0.704063 -0.704062 -0.092692
vn -0.231494 -0.963612 -0.133653
vn -0.034055 -0.965366 -0.258668
vn -0.092693 -0.704062 -0.704063
vn -0.133653 -0.963612 -0.231494
vn -0.935113 -0.250563 -0.250563
vn -0.935113 -0.250563 -0.250563
vn -0.711075 -0.676809 -0.190532
vn -0.598291 -0.723002 -0.345423
vn -0.250562 -0.250564 -0.935113
vn -0.684550 -0.250562 -0.684551
vn -0.250564 -0.250562 -0.935113
vn -0.684551 -0.250564 -0.684549
vn -0.520543 -0.676809 -0.520542
vn -0.190531 -0.676809 -0.711075
vn -0.345424 -0.723002 -0.598290
vn -0.958209 0.126151 -0.256751
vn -0.126151 0.958209 -0.256751
vn -0.126151 0.958209 -0.256751
vn -0.092692 0.704062 -0.704063
vn -0.034055 0.258670 -0.965365
vn -0.038899 0.245600 -0.968590
vn -0.092692 0.704062 -0.704063
vn -0.369855 0.892909 -0.256751
vn -0.369855 0.892909 -0.256751
vn -0.597808 0.779079 -0.188843
vn -0.526129 0.810168 -0.258488
vn -0.109569 0.215042 -0.970439
vn -0.271758 0.656082 -0.704063
vn -0.271758 0.656081 -0.704063
vn -0.103677 0.250299 -0.962601
vn -0.385382 0.593436 -0.706622
vn -0.141144 0.217343 -0.965837
vn -0.385382 0.593436 -0.706622
vn -0.627448 0.734647 -0.258074
vn -0.168998 0.168998 -0.971020
vn -0.168575 0.197376 -0.965725
vn -0.459937 0.538517 -0.706015
vn -0.459937 0.538517 -0.706015
vn -0.779079 0.597808 -0.188843
vn -0.734647 0.627448 -0.258074
vn -0.810168 0.526129 -0.258488
vn -0.197376 0.168575 -0.965725
vn -0.538517 0.459937 -0.706015
vn -0.538517 0.459937 -0.706015
vn -0.215042 0.109569 -0.970439
vn -0.217343 0.141144 -0.965837
vn -0.593436 0.385382 -0.706622
vn -0.593436 0.385382 -0.706622
vn -0.902908 0.373997 -0.211856
vn -0.882740 0.393021 -0.257496
vn -0.938628 0.148664 -0.311250
vn -0.702713 0.111299 -0.702714
vn -0.258603 0.040959 -0.965115
vn -0.258603 0.040959 -0.965115
vn -0.702713 0.111299 -0.702714
vn -0.237658 0.105812 -0.965568
vn -0.647746 0.288395 -0.705162
vn -0.647745 0.288395 -0.705162
vn -0.965926 0.000000 -0.258819
vn -0.965926 -0.000000 -0.258819
vn -0.707106 -0.000000 -0.707107
vn -0.258820 -0.000000 -0.965926
vn -0.707106 0.000000 -0.707107
vn -0.258820 -0.000000 -0.965926
vn 0.000000 0.000000 1.000000
vn 0.000000 0.000000 1.000000
vn 0.000000 0.000000 1.000000
vn 0.000000 0.000000 1.000000
vn 0.000000 0.000000 1.000000
vn 0.000000 0.000000 1.000000
vn 0.000000 0.000000 1.000000
vn 0.000000 0.000000 -1.000000
vn 0.000000 0.000000 -1.000000
vn 0.000000 0.000000 -1.000000
vn 0.000000 0.000000 -1.000000
vn 0.000000 0.000000 -1.000000
vn 0.000000 0.000000 -1.000000
vn 0.000000 0.000000 -1.000000
vn 0.000000 0.000000 -1.000000
vn 0.000000 0.000000 -1.000000
vn 0.000000 -0.000000 -1.000000
vn 0.000000 0.000000 -1.000000
vn 0.000000 0.000000 -1.000000
vn 0.000000 0.000000 -1.000000
vn 0.000000 0.000000 -1.000000
vn 0.000000 0.000000 -1.000000
vn 0.000000 0.000000 -1.000000
vn 0.000000 0.000000 -1.000000
vn 0.000000 0.000000 -1.000000
vn 0.000000 0.000000 -1.000000
vn 0.000000 -0.000000 -1.000000
vn 0.000000 0.000000 -1.000000
vn 0.000000 0.000000 -1.000000
vn 0.000000 -0.000000 -1.000000
vn 0.000000 0.000000 -1.000000
vn 0.000000 0.000000 -1.000000
vn 0.000000 -0.000000 -1.000000
vn 0.000000 0.000000 -1.000000
vn 0.000000 -0.000000 -1.000000
vn 0.000000 0.000000 -1.000000
vn 0.000000 0.000000 -1.000000
vn 0.000000 0.000000 -1.000000
vn 0.000000 0.000000 -1.000000
vn 0.000000 0.000000 -1.000000
vn 0.000000 0.000000 -1.000000
vn 0.000000 0.000000 -1.000000
vn 0.000000 0.000000 -1.000000
vn 0.000000 0.000000 -1.000000
vn 0.000000 0.000000 -1.000000
vn 0.000000 0.000000 -1.000000
vn 0.000000 0.000000 -1.000000
vn 0.000000 0.000000 -1.000000
vn 0.000000 0.000000 -1.000000
vn 0.000000 0.000000 -1.000000
vn 0.000000 0.000000 -1.000000
vn 0.000000 0.000000 -1.000000
vn 1.000000 0.000000 0.000000
vn 1.000000 0.000000 -0.000000
vn 0.965926 0.258819 0.000000
vn 0.707108 0.707106 0.000000
vn 0.965926 0.258819 0.000000
vn 0.707108 0.707106 0.000000
vn 0.258818 0.965926 0.000000
vn 0.258818 0.965926 0.000000
vn 0.991445 -0.130526 0.000000
vn 0.923880 -0.382683 0.000000
vn 0.991445 -0.130526 0.000000
vn 0.793353 -0.608761 0.000000
vn 0.923880 -0.382683 0.000000
vn 0.608761 -0.793353 0.000000
vn 0.793353 -0.608761 0.000000
vn 0.382683 -0.923880 0.000000
vn 0.608761 -0.793353 0.000000
vn 0.130526 -0.991445 0.000000
vn 0.382683 -0.923880 0.000000
vn 0.130526 -0.991445 0.000000
vn 0.000000 1.000000 0.000000
vn 0.000000 1.000000 0.000000
vn 0.000000 1.000000 0.000000
vn 0.000000 1.000000 0.000000
vn 0.000000 1.000000 0.000000
vn -0.000000 -1.000000 0.000000
vn -0.000000 -1.000000 0.000000
vn -0.965926 0.258819 0.000000
vn -0.707108 0.707105 0.000000
vn -0.965926 0.258819 0.000000
vn -0.258817 0.965926 0.000000
vn -0.707108 0.707105 0.000000
vn -0.258817 0.965926 0.000000
vn -0.258819 -0.965926 0.000000
vn -0.258819 -0.965926 0.000000
vn -0.707106 -0.707107 0.000000
vn -0.707106 -0.707107 0.000000
vn -0.965926 -0.258818 0.000000
vn -0.965926 -0.258818 0.000000
vn -1.000000 0.000000 0.000000
vn -1.000000 0.000000 0.000000
vn -1.000000 0.000000 0.000000
vn -1.000000 0.000000 0.000000
vn -1.000000 0.000000 0.000000
vn 1.000000 -0.000000 0.000000
vn 1.000000 0.000000 0.000000
vn 1.000000 0.000000 0.000000
vn 1.000000 0.000000 0.000000
vn 1.000000 0.000000 0.000000
vn 0.258818 -0.965926 0.000000
vn 0.258818 -0.965926 0.000000
vn 0.707108 -0.707106 0.000000
vn 0.707108 -0.707106 0.000000
vn 0.965926 -0.258820 0.000000
vn 0.965926 -0.258820 0.000000
vn 0.258819 0.965926 0.000000
vn 0.258819 0.965926 -0.000000
vn 0.707107 0.707106 0.000000
vn 0.707107 0.707106 -0.000000
vn 0.965926 0.258820 0.000000
vn 0.965926 0.258820 -0.000000
vn 0.000000 -1.000000 0.000000
vn 0.000000 -1.000000 0.000000
vn 0.000000 1.000000 -0.000000
vn 0.000000 1.000000 0.000000
vn -0.258818 -0.965926 -0.000000
vn -0.258818 -0.965926 -0.000000
vn -0.707107 -0.707106 -0.000000
vn -0.965926 -0.258819 -0.000000
vn -0.707107 -0.707106 0.000000
vn -0.965926 -0.258819 -0.000000
vn -0.991445 0.130526 0.000000
vn -0.923880 0.382683 0.000000
vn -0.991445 0.130526 0.000000
vn -0.793353 0.608761 0.000000
vn -0.923880 0.382683 0.000000
vn -0.608761 0.793353 0.000000
vn -0.793353 0.608761 0.000000
vn -0.382683 0.923880 0.000000
vn -0.608761 0.793353 0.000000
vn -0.130526 0.991445 0.000000
vn -0.382683 0.923880 0.000000
vn -0.130526 0.991445 0.000000
vn -1.000000 0.000000 0.000000
vn -1.000000 0.000000 0.000000
vn 0.965926 0.000000 0.258819
vn 0.965926 0.000000 0.258819
vn 0.707106 0.000000 0.707107
vn 0.707106 0.000000 0.707107
vn 0.258820 0.000000 0.965926
vn 0.258820 0.000000 0.965926
vn 0.948576 0.254170 0.188684
vn 0.946040 0.201869 0.253491
vn 0.694876 0.185184 0.694877
vn 0.795823 0.289665 0.531752
vn 0.700216 0.700213 0.139282
vn 0.258475 0.964649 0.051414
vn 0.250010 0.965923 0.066990
vn 0.700216 0.700213 0.139282
vn 0.253491 0.201869 0.946040
vn 0.188683 0.254170 0.948576
vn 0.531753 0.289664 0.795823
vn 0.181092 0.966650 0.181092
vn 0.593614 0.700213 0.396641
vn 0.593614 0.700213 0.396640
vn 0.220314 0.964257 0.147209
vn 0.139280 0.700214 0.700215
vn 0.051414 0.964649 0.258475
vn 0.066991 0.965923 0.250009
vn 0.147209 0.964257 0.220314
vn 0.396641 0.700213 0.593614
vn 0.396640 0.700213 0.593615
vn 0.139282 0.700213 0.700216
vn 0.958209 -0.126151 0.256751
vn 0.258602 -0.040959 0.965115
vn 0.126151 -0.958209 0.256751
vn 0.126151 -0.958209 0.256751
vn 0.092692 -0.704062 0.704063
vn 0.034054 -0.258669 0.965365
vn 0.039397 -0.248742 0.967768
vn 0.092692 -0.704062 0.704063
vn 0.369855 -0.892909 0.256751
vn 0.369855 -0.892909 0.256752
vn 0.595863 -0.776543 0.204764
vn 0.526129 -0.810168 0.258488
vn 0.111767 -0.219355 0.969222
vn 0.271758 -0.656082 0.704063
vn 0.102553 -0.247585 0.963423
vn 0.271758 -0.656082 0.704063
vn 0.627448 -0.734647 0.258074
vn 0.459937 -0.538517 0.706015
vn 0.141144 -0.217342 0.965837
vn 0.385382 -0.593436 0.706622
vn 0.385382 -0.593436 0.706622
vn 0.776543 -0.595863 0.204764
vn 0.734647 -0.627448 0.258074
vn 0.172785 -0.172785 0.969686
vn 0.459937 -0.538517 0.706015
vn 0.168575 -0.197376 0.965725
vn 0.810168 -0.526129 0.258488
vn 0.197376 -0.168575 0.965725
vn 0.538517 -0.459937 0.706015
vn 0.538517 -0.459937 0.706015
vn 0.219355 -0.111767 0.969222
vn 0.217342 -0.141144 0.965837
vn 0.593436 -0.385382 0.706622
vn 0.593436 -0.385382 0.706622
vn 0.900757 -0.373106 0.222327
vn 0.882740 -0.393021 0.257495
vn 0.942470 -0.149273 0.299111
vn 0.702713 -0.111299 0.702714
vn 0.702713 -0.111299 0.702714
vn 0.258602 -0.040959 0.965115
vn 0.647746 -0.288395 0.705162
vn 0.237658 -0.105812 0.965568
vn 0.647746 -0.288395 0.705162
vn 0.000000 0.258819 0.965926
vn 0.000000 0.258813 0.965928
vn 0.000000 0.707106 0.707108
vn 0.000001 0.707107 0.707107
vn -0.000000 0.965926 0.258818
vn 0.000000 0.965927 0.258813
vn -0.000000 -0.965926 0.258819
vn 0.000000 -0.965926 0.258819
vn 0.000000 -0.258820 0.965926
vn 0.000000 -0.707106 0.707107
vn 0.000000 -0.707106 0.707107
vn 0.000000 -0.258820 0.965926
vn 0.070923 0.250801 0.965437
vn -0.258776 -0.018414 0.965762
vn -0.707022 0.015399 0.707024
vn -0.416011 0.214772 0.883633
vn 0.025776 0.704913 0.708825
vn -0.183713 0.410808 0.893021
vn -0.770075 0.192294 0.608282
vn -0.965762 -0.018416 0.258774
vn -0.965435 0.250806 -0.070935
vn -0.943844 0.071903 0.322472
vn -0.385237 0.420026 0.821688
vn -0.387689 0.418359 0.821385
vn 0.007677 0.711240 0.702908
vn -0.713035 0.424415 0.558080
vn -0.709890 0.427098 0.560039
vn -0.861015 0.417159 0.290914
vn -0.893026 0.410808 0.183688
vn -0.854625 0.422672 0.301601
vn -0.274383 0.737303 0.617332
vn -0.298463 0.728478 0.616635
vn 0.608739 0.746827 0.267743
vn -0.126487 0.932018 0.339622
vn -0.532814 0.740070 0.410373
vn -0.528295 0.742093 0.412556
vn -0.707829 0.706314 -0.009964
vn -0.629551 0.740222 0.236085
vn -0.706135 0.707519 -0.028105
vn -0.649573 0.731135 0.208560
vn -0.028563 0.995697 0.088152
vn -0.130250 0.934792 0.330452
vn -0.176681 0.929751 0.323028
vn -0.073348 0.996038 0.050279
vn -0.282083 0.936450 0.208543
vn -0.270551 0.938178 0.215926
vn -0.267745 0.746810 -0.608759
vn -0.339630 0.932019 0.126457
vn -0.091162 0.995652 0.019143
vn -0.349257 0.932121 0.095758
vn -0.316424 0.937276 0.146252
vn -0.254171 -0.188682 0.948576
vn -0.190641 -0.254073 0.948211
vn -0.170029 -0.696810 0.696811
vn -0.296626 -0.530566 0.794048
vn -0.700214 -0.139281 0.700215
vn -0.964649 -0.051414 0.258476
vn -0.966681 -0.066254 0.247262
vn -0.700214 -0.139280 0.700215
vn -0.190642 -0.948210 0.254072
vn -0.254170 -0.948576 0.188684
vn -0.296628 -0.794048 0.530566
vn -0.967625 -0.178469 0.178469
vn -0.700214 -0.396641 0.593613
vn -0.700214 -0.396640 0.593613
vn -0.963697 -0.148336 0.222001
vn -0.700214 -0.700215 0.139282
vn -0.964649 -0.258476 0.051414
vn -0.966681 -0.247262 0.066254
vn -0.963697 -0.222001 0.148336
vn -0.700214 -0.593614 0.396640
vn -0.700214 -0.700215 0.139282
vn -0.700214 -0.593613 0.396640
vn -0.258820 0.000000 0.965926
vn -0.258820 0.000000 0.965926
vn -0.707106 0.000000 0.707108
vn -0.965926 0.000000 0.258818
vn -0.707106 0.000000 0.707108
vn -0.965926 0.000000 0.258818
vn 0.258820 0.000000 -0.965926
vn 0.342021 -0.001896 -0.939690
vn 0.793352 -0.000637 -0.608763
vn 0.707106 0.001272 -0.707106
vn 0.976296 0.000000 -0.216440
vn 0.965925 0.000793 -0.258820
vn 0.250564 0.250563 -0.935113
vn 0.963611 0.258200 -0.069185
vn 0.705712 0.062788 -0.705712
vn 0.282290 0.268098 -0.921106
vn 0.965365 0.034055 -0.258670
vn 0.968688 0.064260 -0.239821
vn 0.735116 0.088491 -0.672141
vn 0.772063 0.221549 -0.595680
vn 0.382392 0.495425 -0.779956
vn 0.163792 0.697557 -0.697558
vn 0.382463 0.491113 -0.782643
vn 0.544197 0.510725 -0.665590
vn 0.968175 0.176971 -0.176971
vn 0.962146 0.125842 -0.241742
vn 0.826646 0.259836 -0.499142
vn 0.777483 0.382852 -0.498943
vn 0.632706 0.614367 -0.471420
vn 0.919124 0.380371 -0.102608
vn 0.814377 0.460412 -0.353287
vn 0.152562 0.954619 -0.255789
vn 0.256751 0.958209 -0.126151
vn 0.513373 0.761202 -0.396257
vn 0.319727 0.840452 -0.437511
vn 0.705957 0.705957 -0.057002
vn 0.671613 0.734563 -0.096707
vn 0.937296 0.306717 -0.165536
vn 0.919497 0.281202 -0.274683
vn 0.628586 0.726047 -0.278811
vn -0.241137 -0.919427 -0.310656
vn 0.069785 -0.996531 -0.045341
vn 0.353603 -0.666500 0.656310
vn 0.090311 -0.995816 -0.013969
vn 0.317416 -0.936681 -0.147904
vn -0.052783 -0.696442 -0.715669
vn 0.121498 -0.932920 -0.338967
vn 0.117157 -0.941635 -0.315592
vn 0.265467 -0.945406 -0.189039
vn 0.322533 -0.941196 -0.100610
vn 0.257838 -0.944278 -0.204592
vn 0.392395 -0.914304 -0.100369
vn -0.081783 -0.693633 -0.715671
vn 0.266814 -0.763741 -0.587802
vn 0.423383 -0.043290 -0.904916
vn 0.249451 -0.752727 -0.609242
vn 0.509705 -0.770329 -0.383137
vn 0.507802 -0.768762 -0.388770
vn 0.719042 -0.690551 0.078208
vn 0.709042 -0.703457 0.049070
vn 0.623687 -0.750992 -0.216856
vn 0.633213 -0.753672 -0.176128
vn 0.921096 -0.236079 -0.309594
vn -0.147688 -0.219040 -0.964474
vn 0.342022 0.000879 -0.939692
vn 0.303345 -0.440812 -0.844788
vn 0.350111 -0.519287 -0.779591
vn 0.410398 -0.122290 -0.903669
vn 0.782344 -0.166007 -0.600316
vn 0.700474 -0.469100 -0.537849
vn 0.775474 -0.177450 -0.605930
vn 0.871687 -0.435730 -0.224282
vn 0.697877 -0.465654 -0.544182
vn 0.964471 -0.219044 0.147698
vn 0.974523 -0.060235 -0.216047
vn 0.943440 -0.136608 -0.302093
vn 0.838480 -0.476611 -0.264183
vn 0.000000 -0.965926 -0.258818
vn -0.000000 -0.707106 -0.707108
vn -0.000000 -0.965927 -0.258813
vn -0.000000 -0.258820 -0.965926
vn -0.000000 -0.707107 -0.707107
vn 0.000000 -0.258813 -0.965928
vn 0.000000 0.965926 -0.258819
vn 0.000000 0.965926 -0.258819
vn 0.000000 0.707106 -0.707107
vn 0.000000 0.707106 -0.707107
vn 0.000000 0.258820 -0.965926
vn 0.000000 0.258820 -0.965926
vn -0.258668 -0.965366 -0.034054
vn -0.704063 -0.704062 -0.092692
vn -0.231494 -0.963612 -0.133653
vn -0.034055 -0.965366 -0.258668
vn -0.092693 -0.704062 -0.704063
vn -0.133653 -0.963612 -0.231494
vn -0.935113 -0.250563 -0.250563
vn -0.935113 -0.250563 -0.250563
vn -0.711075 -0.676809 -0.190532
vn -0.598291 -0.723002 -0.345423
vn -0.250562 -0.250564 -0.935113
vn -0.684550 -0.250562 -0.684551
vn -0.250564 -0.250562 -0.935113
vn -0.684551 -0.250564 -0.684549
vn -0.520543 -0.676809 -0.520542
vn -0.190531 -0.676809 -0.711075
vn -0.345424 -0.723002 -0.598290
vn -0.958209 0.126151 -0.256751
vn -0.126151 0.958209 -0.256751
vn -0.126151 0.958209 -0.256751
vn -0.092692 0.704062 -0.704063
vn -0.034055 0.258670 -0.965365
vn -0.038899 0.245600 -0.968590
vn -0.092692 0.704062 -0.704063
vn -0.369855 0.892909 -0.256751
vn -0.369855 0.892909 -0.256751
vn -0.597808 0.779079 -0.188843
vn -0.526129 0.810168 -0.258488
vn -0.109569 0.215042 -0.970439
vn -0.271758 0.656082 -0.704063
vn -0.271758 0.656081 -0.704063
vn -0.103677 0.250299 -0.962601
vn -0.385382 0.593436 -0.706622
vn -0.141144 0.217343 -0.965837
vn -0.385382 0.593436 -0.706622
vn -0.627448 0.734647 -0.258074
vn -0.168998 0.168998 -0.971020
vn -0.168575 0.197376 -0.965725
vn -0.459937 0.538517 -0.706015
vn -0.459937 0.538517 -0.706015
vn -0.779079 0.597808 -0.188843
vn -0.734647 0.627448 -0.258074
vn -0.810168 0.526129 -0.258488
vn -0.197376 0.168575 -0.965725
vn -0.538517 0.459937 -0.706015
vn -0.538517 0.459937 -0.706015
vn -0.215042 0.109569 -0.970439
vn -0.217343 0.141144 -0.965837
vn -0.593436 0.385382 -0.706622
vn -0.593436 0.385382 -0.706622
vn -0.902908 0.373997 -0.211856
vn -0.882740 0.393021 -0.257496
vn -0.938628 0.148664 -0.311250
vn -0.702713 0.111299 -0.702714
vn -0.258603 0.040959 -0.965115
vn -0.258603 0.040959 -0.965115
vn -0.702713 0.111299 -0.702714
vn -0.237658 0.105812 -0.965568
vn -0.647746 0.288395 -0.705162
vn -0.647745 0.288395 -0.705162
vn -0.965926 0.000000 -0.258819
vn -0.965926 -0.000000 -0.258819
vn -0.707106 -0.000000 -0.707107
vn -0.258820 -0.000000 -0.965926
vn -0.707106 0.000000 -0.707107
vn -0.258820 -0.000000 -0.965926
vn 0.000000 0.000000 1.000000
vn 0.000000 0.000000 1.000000
vn 0.000000 0.000000 1.000000
vn 0.000000 0.000000 1.000000
vn 0.000000 0.000000 1.000000
vn 0.000000 0.000000 1.000000
vn 0.000000 0.000000 1.000000
vn 0.000000 0.000000 -1.000000
vn 0.000000 0.000000 -1.000000
vn 0.000000 0.000000 -1.000000
vn 0.000000 0.000000 -1.000000
vn 0.000000 0.000000 -1.000000
vn 0.000000 0.000000 -1.000000
vn 0.000000 0.000000 -1.000000
g MeshExport
f 1//1 2//1 3//1
f 4//2 2//2 1//2
f 5//3 2//3 4//3
f 6//4 7//4 4//4
f 4//5 7//5 5//5
f 2//6 8//6 3//6
f 3//7 9//7 10//7
f 8//8 9//8 3//8
f 10//9 11//9 12//9
f 9//10 11//10 10//10
f 12//11 13//11 14//11
f 11//12 13//12 12//12
f 15//13 16//13 13//13
f 13//14 16//14 14//14
f 15//15 17//15 16//15
f 17//16 18//16 16//16
f 19//17 20//17 6//17
f 6//18 20//18 7//18
f 21//19 22//19 19//19
f 19//20 22//20 20//20
f 23//21 24//21 17//21
f 17//22 24//22 18//22
f 22//23 25//23 26//23
f 21//24 25//24 22//24
f 23//25 27//25 24//25
f 26//26 28//26 29//26
f 25//27 28//27 26//27
f 27//28 30//28 24//28
f 27//29 31//29 30//29
f 32//30 33//30 31//30
f 31//31 33//31 30//31
f 29//32 34//32 35//32
f 35//33 34//33 36//33
f 28//34 34//34 29//34
f 34//35 37//35 36//35
f 36//36 37//36 32//36
f 37//37 38//37 32//37
f 32//38 38//38 33//38
f 39//39 33//39 40//39
f 30//40 33//40 39//40
f 41//41 33//41 38//41
f 41//42 38//42 37//42
f 41//43 40//43 33//43
f 42//44 41//44 37//44
f 43//45 37//45 34//45
f 43//46 42//46 37//46
f 30//47 39//47 24//47
f 24//48 44//48 18//48
f 39//49 44//49 24//49
f 18//50 45//50 16//50
f 44//51 45//51 18//51
f 16//52 46//52 14//52
f 45//53 46//53 16//53
f 14//54 47//54 12//54
f 46//55 47//55 14//55
f 12//56 48//56 10//56
f 47//57 48//57 12//57
f 48//58 49//58 10//58
f 50//59 51//59 52//59
f 50//60 43//60 51//60
f 43//61 34//61 51//61
f 51//62 28//62 53//62
f 34//63 28//63 51//63
f 54//64 10//64 49//64
f 3//65 10//65 54//65
f 19//66 55//66 56//66
f 21//67 56//67 57//67
f 21//68 19//68 56//68
f 25//69 57//69 53//69
f 25//70 21//70 57//70
f 28//71 25//71 53//71
f 1//72 54//72 58//72
f 1//73 3//73 54//73
f 4//74 58//74 59//74
f 4//75 1//75 58//75
f 6//76 59//76 60//76
f 6//77 4//77 59//77
f 19//78 61//78 55//78
f 61//79 62//79 63//79
f 61//80 60//80 62//80
f 19//81 6//81 61//81
f 61//82 6//82 60//82
f 64//83 20//83 65//83
f 66//84 64//84 67//84
f 66//85 67//85 68//85
f 7//86 20//86 64//86
f 7//87 64//87 66//87
f 26//88 69//88 70//88
f 26//89 29//89 69//89
f 22//90 70//90 71//90
f 22//91 26//91 70//91
f 20//92 71//92 65//92
f 20//93 22//93 71//93
f 72//94 2//94 73//94
f 8//95 2//95 72//95
f 73//96 5//96 74//96
f 2//97 5//97 73//97
f 74//98 7//98 66//98
f 5//99 7//99 74//99
f 69//100 35//100 75//100
f 29//101 35//101 69//101
f 9//102 72//102 76//102
f 9//103 8//103 72//103
f 75//104 35//104 36//104
f 77//105 75//105 36//105
f 78//106 36//106 32//106
f 78//107 32//107 31//107
f 78//108 77//108 36//108
f 79//109 78//109 31//109
f 80//110 27//110 23//110
f 81//111 23//111 17//111
f 81//112 80//112 23//112
f 82//113 17//113 15//113
f 82//114 81//114 17//114
f 83//115 15//115 13//115
f 83//116 82//116 15//116
f 84//117 13//117 11//117
f 84//118 83//118 13//118
f 85//119 11//119 9//119
f 85//120 84//120 11//120
f 76//121 85//121 9//121
f 31//122 80//122 79//122
f 31//123 27//123 80//123
f 40//124 86//124 39//124
f 39//125 86//125 87//125
f 87//126 88//126 89//126
f 86//127 88//127 87//127
f 89//128 90//128 91//128
f 88//129 90//129 89//129
f 41//130 92//130 40//130
f 40//131 92//131 86//131
f 86//132 93//132 88//132
f 92//133 93//133 86//133
f 42//134 94//134 41//134
f 43//135 94//135 42//135
f 50//136 94//136 43//136
f 41//137 94//137 92//137
f 88//138 95//138 90//138
f 90//139 95//139 96//139
f 93//140 95//140 88//140
f 52//141 97//141 50//141
f 92//142 97//142 93//142
f 94//143 97//143 92//143
f 50//144 97//144 94//144
f 96//145 98//145 99//145
f 99//146 98//146 51//146
f 51//147 98//147 52//147
f 52//148 98//148 97//148
f 93//149 98//149 95//149
f 97//150 98//150 93//150
f 95//151 98//151 96//151
f 87//152 44//152 39//152
f 91//153 100//153 89//153
f 101//154 102//154 49//154
f 101//155 49//155 48//155
f 103//156 104//156 102//156
f 103//157 105//157 104//157
f 103//158 106//158 105//158
f 103//159 102//159 101//159
f 107//160 48//160 47//160
f 107//161 101//161 48//161
f 108//162 47//162 46//162
f 108//163 107//163 47//163
f 109//164 110//164 106//164
f 109//165 101//165 107//165
f 109//166 106//166 103//166
f 109//167 103//167 101//167
f 111//168 108//168 46//168
f 112//169 108//169 111//169
f 112//170 110//170 109//170
f 112//171 107//171 108//171
f 112//172 109//172 107//172
f 113//173 46//173 45//173
f 113//174 111//174 46//174
f 114//175 115//175 110//175
f 114//176 112//176 111//176
f 114//177 110//177 112//177
f 116//178 113//178 45//178
f 117//179 115//179 114//179
f 117//180 111//180 113//180
f 117//181 114//181 111//181
f 118//182 100//182 115//182
f 118//183 115//183 117//183
f 118//184 113//184 116//184
f 118//185 117//185 113//185
f 119//186 45//186 44//186
f 119//187 116//187 45//187
f 119//188 44//188 87//188
f 120//189 87//189 89//189
f 120//190 119//190 87//190
f 120//191 89//191 100//191
f 120//192 118//192 116//192
f 120//193 100//193 118//193
f 120//194 116//194 119//194
f 121//195 90//195 96//195
f 121//196 122//196 90//196
f 123//197 96//197 99//197
f 123//198 121//198 96//198
f 53//199 99//199 51//199
f 53//200 123//200 99//200
f 49//201 102//201 54//201
f 54//202 102//202 124//202
f 125//203 104//203 126//203
f 124//204 104//204 125//204
f 102//205 104//205 124//205
f 104//206 105//206 126//206
f 121//207 127//207 122//207
f 122//208 127//208 128//208
f 128//209 129//209 130//209
f 127//210 129//210 128//210
f 123//211 131//211 121//211
f 121//212 131//212 127//212
f 129//213 132//213 130//213
f 130//214 133//214 55//214
f 55//215 133//215 56//215
f 132//216 133//216 130//216
f 127//217 134//217 129//217
f 131//218 134//218 127//218
f 123//219 135//219 131//219
f 134//220 136//220 129//220
f 129//221 136//221 132//221
f 132//222 137//222 133//222
f 133//223 137//223 56//223
f 136//224 137//224 132//224
f 131//225 138//225 134//225
f 135//226 138//226 131//226
f 53//227 139//227 123//227
f 123//228 139//228 135//228
f 134//229 140//229 136//229
f 138//230 140//230 134//230
f 56//231 141//231 57//231
f 140//232 141//232 136//232
f 137//233 141//233 56//233
f 136//234 141//234 137//234
f 53//235 142//235 139//235
f 135//236 142//236 138//236
f 139//237 142//237 135//237
f 53//238 143//238 142//238
f 138//239 143//239 140//239
f 142//240 143//240 138//240
f 57//241 144//241 53//241
f 141//242 144//242 57//242
f 53//243 144//243 143//243
f 140//244 144//244 141//244
f 143//245 144//245 140//245
f 145//246 146//246 126//246
f 126//247 146//247 125//247
f 125//248 147//248 124//248
f 146//249 147//249 125//249
f 148//250 149//250 145//250
f 61//251 149//251 148//251
f 63//252 149//252 61//252
f 145//253 149//253 146//253
f 124//254 150//254 54//254
f 54//255 150//255 58//255
f 147//256 150//256 124//256
f 62//257 151//257 63//257
f 149//258 151//258 146//258
f 146//259 151//259 147//259
f 63//260 151//260 149//260
f 58//261 152//261 59//261
f 59//262 152//262 60//262
f 60//263 152//263 62//263
f 62//264 152//264 151//264
f 147//265 152//265 150//265
f 150//266 152//266 58//266
f 151//267 152//267 147//267
f 145//268 126//268 122//268
f 145//269 122//269 128//269
f 145//270 128//270 130//270
f 148//271 130//271 55//271
f 148//272 145//272 130//272
f 61//273 148//273 55//273
f 153//274 154//274 155//274
f 155//275 154//275 156//275
f 156//276 157//276 158//276
f 154//277 157//277 156//277
f 158//278 64//278 65//278
f 157//279 64//279 158//279
f 159//280 154//280 153//280
f 66//281 68//281 74//281
f 160//282 157//282 154//282
f 160//283 154//283 159//283
f 161//284 64//284 157//284
f 161//285 67//285 64//285
f 161//286 157//286 160//286
f 162//287 161//287 160//287
f 162//288 160//288 159//288
f 163//289 159//289 164//289
f 163//290 162//290 159//290
f 165//291 162//291 163//291
f 166//292 68//292 67//292
f 166//293 67//293 161//293
f 166//294 161//294 162//294
f 166//295 162//295 165//295
f 167//296 165//296 163//296
f 167//297 68//297 166//297
f 167//298 166//298 165//298
f 168//299 164//299 72//299
f 168//300 72//300 73//300
f 168//301 167//301 163//301
f 168//302 163//302 164//302
f 169//303 73//303 74//303
f 169//304 168//304 73//304
f 169//305 74//305 68//305
f 169//306 68//306 167//306
f 169//307 167//307 168//307
f 170//308 171//308 69//308
f 171//309 172//309 69//309
f 69//310 173//310 70//310
f 172//311 173//311 69//311
f 70//312 173//312 172//312
f 174//313 175//313 170//313
f 175//314 176//314 170//314
f 170//315 176//315 171//315
f 176//316 177//316 171//316
f 172//317 177//317 70//317
f 171//318 177//318 172//318
f 177//319 178//319 70//319
f 174//320 179//320 175//320
f 175//321 180//321 176//321
f 174//322 180//322 179//322
f 179//323 180//323 175//323
f 180//324 181//324 176//324
f 176//325 181//325 177//325
f 70//326 182//326 71//326
f 178//327 182//327 70//327
f 177//328 182//328 178//328
f 181//329 182//329 177//329
f 71//330 182//330 181//330
f 155//331 183//331 174//331
f 156//332 183//332 155//332
f 174//333 184//333 180//333
f 183//334 184//334 174//334
f 156//335 184//335 183//335
f 158//336 185//336 156//336
f 180//337 185//337 181//337
f 156//338 185//338 184//338
f 181//339 185//339 71//339
f 184//340 185//340 180//340
f 71//341 186//341 65//341
f 65//342 186//342 158//342
f 158//343 186//343 185//343
f 185//344 186//344 71//344
f 69//345 75//345 187//345
f 170//346 187//346 188//346
f 170//347 69//347 187//347
f 174//348 188//348 189//348
f 174//349 170//349 188//349
f 155//350 174//350 189//350
f 190//351 76//351 72//351
f 190//352 72//352 164//352
f 191//353 164//353 159//353
f 191//354 190//354 164//354
f 192//355 159//355 153//355
f 192//356 191//356 159//356
f 77//357 193//357 75//357
f 78//358 193//358 77//358
f 193//359 194//359 75//359
f 75//360 195//360 187//360
f 187//361 195//361 188//361
f 194//362 195//362 75//362
f 79//363 196//363 78//363
f 197//364 196//364 79//364
f 78//365 196//365 193//365
f 193//366 196//366 194//366
f 188//367 198//367 189//367
f 199//368 198//368 197//368
f 189//369 198//369 199//369
f 197//370 198//370 196//370
f 196//371 198//371 194//371
f 195//372 198//372 188//372
f 194//373 198//373 195//373
f 81//374 200//374 80//374
f 190//375 201//375 76//375
f 76//376 201//376 85//376
f 191//377 202//377 190//377
f 192//378 202//378 191//378
f 203//379 202//379 192//379
f 190//380 202//380 201//380
f 85//381 204//381 84//381
f 201//382 204//382 85//382
f 84//383 205//383 83//383
f 204//384 205//384 84//384
f 206//385 207//385 203//385
f 201//386 207//386 204//386
f 202//387 207//387 201//387
f 203//388 207//388 202//388
f 207//389 208//389 204//389
f 206//390 208//390 207//390
f 204//391 208//391 205//391
f 205//392 209//392 83//392
f 210//393 211//393 206//393
f 206//394 211//394 208//394
f 208//395 211//395 205//395
f 205//396 211//396 209//396
f 83//397 212//397 82//397
f 209//398 212//398 83//398
f 212//399 213//399 82//399
f 210//400 214//400 211//400
f 211//401 214//401 209//401
f 209//402 214//402 212//402
f 215//403 216//403 210//403
f 210//404 216//404 214//404
f 212//405 216//405 213//405
f 214//406 216//406 212//406
f 82//407 217//407 81//407
f 213//408 217//408 82//408
f 81//409 217//409 200//409
f 200//410 218//410 219//410
f 219//411 218//411 220//411
f 220//412 218//412 215//412
f 217//413 218//413 200//413
f 215//414 218//414 216//414
f 216//415 218//415 213//415
f 213//416 218//416 217//416
f 197//417 79//417 80//417
f 197//418 80//418 200//418
f 199//419 200//419 219//419
f 199//420 219//420 220//420
f 199//421 197//421 200//421
f 189//422 199//422 220//422
f 110//423 105//423 106//423
f 115//424 105//424 110//424
f 122//425 126//425 105//425
f 91//426 115//426 100//426
f 91//427 122//427 105//427
f 91//428 105//428 115//428
f 90//429 122//429 91//429
f 192//430 210//430 203//430
f 203//431 210//431 206//431
f 192//432 215//432 210//432
f 153//433 155//433 192//433
f 155//434 220//434 192//434
f 192//435 220//435 215//435
f 155//436 189//436 220//436
g MeshExport001
g MeshExport002
g MeshExport003
g MeshExport004
g MeshExport005
g MeshExport006
g MeshExport007
g MeshExport008
f 221//437 222//437 223//437
f 224//438 222//438 221//438
f 225//439 222//439 224//439
f 226//440 227//440 224//440
f 224//441 227//441 225//441
f 222//442 228//442 223//442
f 223//443 229//443 230//443
f 228//444 229//444 223//444
f 230//445 231//445 232//445
f 229//446 231//446 230//446
f 232//447 233//447 234//447
f 231//448 233//448 232//448
f 235//449 236//449 233//449
f 233//450 236//450 234//450
f 235//451 237//451 236//451
f 237//452 238//452 236//452
f 239//453 240//453 226//453
f 226//454 240//454 227//454
f 241//455 242//455 239//455
f 239//456 242//456 240//456
f 243//457 244//457 237//457
f 237//458 244//458 238//458
f 242//459 245//459 246//459
f 241//460 245//460 242//460
f 243//461 247//461 244//461
f 246//462 248//462 249//462
f 245//463 248//463 246//463
f 247//464 250//464 244//464
f 247//465 251//465 250//465
f 252//466 253//466 251//466
f 251//467 253//467 250//467
f 249//468 254//468 255//468
f 255//469 254//469 256//469
f 248//470 254//470 249//470
f 254//471 257//471 256//471
f 256//472 257//472 252//472
f 257//473 258//473 252//473
f 252//474 258//474 253//474
f 259//475 253//475 260//475
f 250//476 253//476 259//476
f 261//477 253//477 258//477
f 261//478 258//478 257//478
f 261//479 260//479 253//479
f 262//480 261//480 257//480
f 263//481 257//481 254//481
f 263//482 262//482 257//482
f 250//483 259//483 244//483
f 244//484 264//484 238//484
f 259//485 264//485 244//485
f 238//486 265//486 236//486
f 264//487 265//487 238//487
f 236//488 266//488 234//488
f 265//489 266//489 236//489
f 234//490 267//490 232//490
f 266//491 267//491 234//491
f 232//492 268//492 230//492
f 267//493 268//493 232//493
f 268//494 269//494 230//494
f 270//495 271//495 272//495
f 270//496 263//496 271//496
f 263//497 254//497 271//497
f 271//498 248//498 273//498
f 254//499 248//499 271//499
f 274//500 230//500 269//500
f 223//501 230//501 274//501
f 239//502 275//502 276//502
f 241//503 276//503 277//503
f 241//504 239//504 276//504
f 245//505 277//505 273//505
f 245//506 241//506 277//506
f 248//507 245//507 273//507
f 221//508 274//508 278//508
f 221//509 223//509 274//509
f 224//510 278//510 279//510
f 224//511 221//511 278//511
f 226//512 279//512 280//512
f 226//513 224//513 279//513
f 239//514 281//514 275//514
f 281//515 282//515 283//515
f 281//516 280//516 282//516
f 239//517 226//517 281//517
f 281//518 226//518 280//518
f 284//519 240//519 285//519
f 286//520 284//520 287//520
f 286//521 287//521 288//521
f 227//522 240//522 284//522
f 227//523 284//523 286//523
f 246//524 289//524 290//524
f 246//525 249//525 289//525
f 242//526 290//526 291//526
f 242//527 246//527 290//527
f 240//528 291//528 285//528
f 240//529 242//529 291//529
f 292//530 222//530 293//530
f 228//531 222//531 292//531
f 293//532 225//532 294//532
f 222//533 225//533 293//533
f 294//534 227//534 286//534
f 225//535 227//535 294//535
f 289//536 255//536 295//536
f 249//537 255//537 289//537
f 229//538 292//538 296//538
f 229//539 228//539 292//539
f 295//540 255//540 256//540
f 297//541 295//541 256//541
f 298//542 256//542 252//542
f 298//543 252//543 251//543
f 298//544 297//544 256//544
f 299//545 298//545 251//545
f 300//546 247//546 243//546
f 301//547 243//547 237//547
f 301//548 300//548 243//548
f 302//549 237//549 235//549
f 302//550 301//550 237//550
f 303//551 235//551 233//551
f 303//552 302//552 235//552
f 304//553 233//553 231//553
f 304//554 303//554 233//554
f 305//555 231//555 229//555
f 305//556 304//556 231//556
f 296//557 305//557 229//557
f 251//558 300//558 299//558
f 251//559 247//559 300//559
f 260//560 306//560 259//560
f 259//561 306//561 307//561
f 307//562 308//562 309//562
f 306//563 308//563 307//563
f 309//564 310//564 311//564
f 308//565 310//565 309//565
f 261//566 312//566 260//566
f 260//567 312//567 306//567
f 306//568 313//568 308//568
f 312//569 313//569 306//569
f 262//570 314//570 261//570
f 263//571 314//571 262//571
f 270//572 314//572 263//572
f 261//573 314//573 312//573
f 308//574 315//574 310//574
f 310//575 315//575 316//575
f 313//576 315//576 308//576
f 272//577 317//577 270//577
f 312//578 317//578 313//578
f 314//579 317//579 312//579
f 270//580 317//580 314//580
f 316//581 318//581 319//581
f 319//582 318//582 271//582
f 271//583 318//583 272//583
f 272//584 318//584 317//584
f 313//585 318//585 315//585
f 317//586 318//586 313//586
f 315//587 318//587 316//587
f 307//588 264//588 259//588
f 311//589 320//589 309//589
f 321//590 322//590 269//590
f 321//591 269//591 268//591
f 323//592 324//592 322//592
f 323//593 325//593 324//593
f 323//594 326//594 325//594
f 323//595 322//595 321//595
f 327//596 268//596 267//596
f 327//597 321//597 268//597
f 328//598 267//598 266//598
f 328//599 327//599 267//599
f 329//600 330//600 326//600
f 329//601 321//601 327//601
f 329//602 326//602 323//602
f 329//603 323//603 321//603
f 331//604 328//604 266//604
f 332//605 328//605 331//605
f 332//606 330//606 329//606
f 332//607 327//607 328//607
f 332//608 329//608 327//608
f 333//609 266//609 265//609
f 333//610 331//610 266//610
f 334//611 335//611 330//611
f 334//612 332//612 331//612
f 334//613 330//613 332//613
f 336//614 333//614 265//614
f 337//615 335//615 334//615
f 337//616 331//616 333//616
f 337//617 334//617 331//617
f 338//618 320//618 335//618
f 338//619 335//619 337//619
f 338//620 333//620 336//620
f 338//621 337//621 333//621
f 339//622 265//622 264//622
f 339//623 336//623 265//623
f 339//624 264//624 307//624
f 340//625 307//625 309//625
f 340//626 339//626 307//626
f 340//627 309//627 320//627
f 340//628 338//628 336//628
f 340//629 320//629 338//629
f 340//630 336//630 339//630
f 341//631 310//631 316//631
f 341//632 342//632 310//632
f 343//633 316//633 319//633
f 343//634 341//634 316//634
f 273//635 319//635 271//635
f 273//636 343//636 319//636
f 269//637 322//637 274//637
f 274//638 322//638 344//638
f 345//639 324//639 346//639
f 344//640 324//640 345//640
f 322//641 324//641 344//641
f 324//642 325//642 346//642
f 341//643 347//643 342//643
f 342//644 347//644 348//644
f 348//645 349//645 350//645
f 347//646 349//646 348//646
f 343//647 351//647 341//647
f 341//648 351//648 347//648
f 349//649 352//649 350//649
f 350//650 353//650 275//650
f 275//651 353//651 276//651
f 352//652 353//652 350//652
f 347//653 354//653 349//653
f 351//654 354//654 347//654
f 343//655 355//655 351//655
f 354//656 356//656 349//656
f 349//657 356//657 352//657
f 352//658 357//658 353//658
f 353//659 357//659 276//659
f 356//660 357//660 352//660
f 351//661 358//661 354//661
f 355//662 358//662 351//662
f 273//663 359//663 343//663
f 343//664 359//664 355//664
f 354//665 360//665 356//665
f 358//666 360//666 354//666
f 276//667 361//667 277//667
f 360//668 361//668 356//668
f 357//669 361//669 276//669
f 356//670 361//670 357//670
f 273//671 362//671 359//671
f 355//672 362//672 358//672
f 359//673 362//673 355//673
f 273//674 363//674 362//674
f 358//675 363//675 360//675
f 362//676 363//676 358//676
f 277//677 364//677 273//677
f 361//678 364//678 277//678
f 273//679 364//679 363//679
f 360//680 364//680 361//680
f 363//681 364//681 360//681
f 365//682 366//682 346//682
f 346//683 366//683 345//683
f 345//684 367//684 344//684
f 366//685 367//685 345//685
f 368//686 369//686 365//686
f 281//687 369//687 368//687
f 283//688 369//688 281//688
f 365//689 369//689 366//689
f 344//690 370//690 274//690
f 274//691 370//691 278//691
f 367//692 370//692 344//692
f 282//693 371//693 283//693
f 369//694 371//694 366//694
f 366//695 371//695 367//695
f 283//696 371//696 369//696
f 278//697 372//697 279//697
f 279//698 372//698 280//698
f 280//699 372//699 282//699
f 282//700 372//700 371//700
f 367//701 372//701 370//701
f 370//702 372//702 278//702
f 371//703 372//703 367//703
f 365//704 346//704 342//704
f 365//705 342//705 348//705
f 365//706 348//706 350//706
f 368//707 350//707 275//707
f 368//708 365//708 350//708
f 281//709 368//709 275//709
f 373//710 374//710 375//710
f 375//711 374//711 376//711
f 376//712 377//712 378//712
f 374//713 377//713 376//713
f 378//714 284//714 285//714
f 377//715 284//715 378//715
f 379//716 374//716 373//716
f 286//717 288//717 294//717
f 380//718 377//718 374//718
f 380//719 374//719 379//719
f 381//720 284//720 377//720
f 381//721 287//721 284//721
f 381//722 377//722 380//722
f 382//723 381//723 380//723
f 382//724 380//724 379//724
f 383//725 379//725 384//725
f 383//726 382//726 379//726
f 385//727 382//727 383//727
f 386//728 288//728 287//728
f 386//729 287//729 381//729
f 386//730 381//730 382//730
f 386//731 382//731 385//731
f 387//732 385//732 383//732
f 387//733 288//733 386//733
f 387//734 386//734 385//734
f 388//735 384//735 292//735
f 388//736 292//736 293//736
f 388//737 387//737 383//737
f 388//738 383//738 384//738
f 389//739 293//739 294//739
f 389//740 388//740 293//740
f 389//741 294//741 288//741
f 389//742 288//742 387//742
f 389//743 387//743 388//743
f 390//744 391//744 289//744
f 391//745 392//745 289//745
f 289//746 393//746 290//746
f 392//747 393//747 289//747
f 290//748 393//748 392//748
f 394//749 395//749 390//749
f 395//750 396//750 390//750
f 390//751 396//751 391//751
f 396//752 397//752 391//752
f 392//753 397//753 290//753
f 391//754 397//754 392//754
f 397//755 398//755 290//755
f 394//756 399//756 395//756
f 395//757 400//757 396//757
f 394//758 400//758 399//758
f 399//759 400//759 395//759
f 400//760 401//760 396//760
f 396//761 401//761 397//761
f 290//762 402//762 291//762
f 398//763 402//763 290//763
f 397//764 402//764 398//764
f 401//765 402//765 397//765
f 291//766 402//766 401//766
f 375//767 403//767 394//767
f 376//768 403//768 375//768
f 394//769 404//769 400//769
f 403//770 404//770 394//770
f 376//771 404//771 403//771
f 378//772 405//772 376//772
f 400//773 405//773 401//773
f 376//774 405//774 404//774
f 401//775 405//775 291//775
f 404//776 405//776 400//776
f 291//777 406//777 285//777
f 285//778 406//778 378//778
f 378//779 406//779 405//779
f 405//780 406//780 291//780
f 289//781 295//781 407//781
f 390//782 407//782 408//782
f 390//783 289//783 407//783
f 394//784 408//784 409//784
f 394//785 390//785 408//785
f 375//786 394//786 409//786
f 410//787 296//787 292//787
f 410//788 292//788 384//788
f 411//789 384//789 379//789
f 411//790 410//790 384//790
f 412//791 379//791 373//791
f 412//792 411//792 379//792
f 297//793 413//793 295//793
f 298//794 413//794 297//794
f 413//795 414//795 295//795
f 295//796 415//796 407//796
f 407//797 415//797 408//797
f 414//798 415//798 295//798
f 299//799 416//799 298//799
f 417//800 416//800 299//800
f 298//801 416//801 413//801
f 413//802 416//802 414//802
f 408//803 418//803 409//803
f 419//804 418//804 417//804
f 409//805 418//805 419//805
f 417//806 418//806 416//806
f 416//807 418//807 414//807
f 415//808 418//808 408//808
f 414//809 418//809 415//809
f 301//810 420//810 300//810
f 410//811 421//811 296//811
f 296//812 421//812 305//812
f 411//813 422//813 410//813
f 412//814 422//814 411//814
f 423//815 422//815 412//815
f 410//816 422//816 421//816
f 305//817 424//817 304//817
f 421//818 424//818 305//818
f 304//819 425//819 303//819
f 424//820 425//820 304//820
f 426//821 427//821 423//821
f 421//822 427//822 424//822
f 422//823 427//823 421//823
f 423//824 427//824 422//824
f 427//825 428//825 424//825
f 426//826 428//826 427//826
f 424//827 428//827 425//827
f 425//828 429//828 303//828
f 430//829 431//829 426//829
f 426//830 431//830 428//830
f 428//831 431//831 425//831
f 425//832 431//832 429//832
f 303//833 432//833 302//833
f 429//834 432//834 303//834
f 432//835 433//835 302//835
f 430//836 434//836 431//836
f 431//837 434//837 429//837
f 429//838 434//838 432//838
f 435//839 436//839 430//839
f 430//840 436//840 434//840
f 432//841 436//841 433//841
f 434//842 436//842 432//842
f 302//843 437//843 301//843
f 433//844 437//844 302//844
f 301//845 437//845 420//845
f 420//846 438//846 439//846
f 439//847 438//847 440//847
f 440//848 438//848 435//848
f 437//849 438//849 420//849
f 435//850 438//850 436//850
f 436//851 438//851 433//851
f 433//852 438//852 437//852
f 417//853 299//853 300//853
f 417//854 300//854 420//854
f 419//855 420//855 439//855
f 419//856 439//856 440//856
f 419//857 417//857 420//857
f 409//858 419//858 440//858
f 320//859 325//859 326//859
f 320//860 326//860 330//860
f 320//861 330//861 335//861
f 342//862 346//862 325//862
f 311//863 342//863 325//863
f 311//864 325//864 320//864
f 310//865 342//865 311//865
f 412//866 435//866 423//866
f 423//867 435//867 426//867
f 426//868 435//868 430//868
f 373//869 375//869 412//869
f 375//870 440//870 412//870
f 412//871 440//871 435//871
f 375//872 409//872 440//872
