# Created by FreeCAD <https://www.freecad.org>
v 16.941042 -4.000000 -17.294695
v 16.941042 -6.000000 10.294695
v 16.941042 -6.000000 -17.294695
v 16.941042 -4.000000 10.294695
v 16.765537 -6.000000 11.852342
v 16.765537 -4.000000 11.852342
v 16.247824 -6.000000 13.331882
v 16.247824 -4.000000 13.331882
v 15.413862 -4.000000 14.659123
v 15.413862 -6.000000 14.659123
v 14.305470 -6.000000 15.767515
v 14.305470 -4.000000 15.767515
v 12.978229 -4.000000 16.601477
v 12.978229 -6.000000 16.601477
v 11.498689 -6.000000 17.119190
v 11.498689 -4.000000 17.119190
v 9.941042 -6.000000 17.294695
v 9.941042 -4.000000 17.294695
v 12.941042 0.000000 -17.294695
v 14.177110 -0.195774 10.294695
v 14.177110 -0.195774 -17.294695
v 12.941042 0.000000 10.294695
v 15.292183 -0.763932 10.294695
v 15.292183 -0.763932 -17.294695
v 16.177111 -1.648859 10.294695
v 16.177111 -1.648859 -17.294695
v 16.745268 -2.763932 10.294695
v 16.745268 -2.763932 -17.294695
v 14.177110 -9.804226 10.294695
v 12.941042 -10.000000 -17.294695
v 14.177110 -9.804226 -17.294695
v 12.941042 -10.000000 10.294695
v 15.292183 -9.236068 10.294695
v 15.292183 -9.236068 -17.294695
v 16.177111 -8.351141 10.294695
v 16.177111 -8.351141 -17.294695
v 16.745268 -7.236068 10.294695
v 16.745268 -7.236068 -17.294695
v -16.941042 -0.000000 -17.294695
v -16.941042 -10.000000 -17.294695
v 14.095716 -0.195774 11.121111
v 12.794211 0.000000 11.221746
v 13.854658 -0.195774 11.915768
v 12.368093 0.000000 12.058051
v 15.189363 -0.763932 11.338651
v 13.463203 -0.195774 12.648129
v 14.884851 -0.763932 12.342488
v 16.057285 -1.648859 11.511292
v 12.936395 -0.195774 13.290048
v 11.704398 0.000000 12.721746
v 14.390353 -0.763932 13.267630
v 15.702417 -1.648859 12.681135
v 16.614527 -2.763932 11.622133
v 12.294476 -0.195774 13.816856
v 13.724870 -0.763932 14.078523
v 15.126143 -1.648859 13.759269
v 16.227327 -2.763932 12.898560
v 11.562115 -0.195774 14.208311
v 10.868093 0.000000 13.147864
v 12.913977 -0.763932 14.744006
v 14.350608 -1.648859 14.704261
v 15.598549 -2.763932 14.074921
v 10.767458 -0.195774 14.449368
v 9.941042 0.000000 13.294695
v 9.941042 -0.195774 14.530763
v 11.988835 -0.763932 15.238504
v 13.405616 -1.648859 15.479796
v 14.752357 -2.763932 15.106009
v 10.984998 -0.763932 15.543015
v 9.941042 -0.763932 15.645836
v 12.327482 -1.648859 16.056070
v 13.721268 -2.763932 15.952202
v 11.157639 -1.648859 16.410938
v 9.941042 -1.648859 16.530764
v 12.544907 -2.763932 16.580980
v 11.268480 -2.763932 16.968180
v 9.941042 -2.763932 17.098921
v 14.095716 -9.804226 11.121111
v 12.794211 -10.000000 11.221746
v 13.854658 -9.804226 11.915768
v 12.368093 -10.000000 12.058051
v 15.189363 -9.236068 11.338651
v 13.463203 -9.804226 12.648129
v 14.884851 -9.236068 12.342488
v 16.057285 -8.351141 11.511292
v 12.936395 -9.804226 13.290048
v 11.704398 -10.000000 12.721746
v 14.390353 -9.236068 13.267630
v 15.702417 -8.351141 12.681135
v 16.614527 -7.236068 11.622133
v 12.294476 -9.804226 13.816856
v 13.724870 -9.236068 14.078523
v 15.126143 -8.351141 13.759269
v 16.227327 -7.236068 12.898560
v 11.562115 -9.804226 14.208311
v 10.868093 -10.000000 13.147864
v 12.913977 -9.236068 14.744006
v 14.350608 -8.351141 14.704261
v 15.598549 -7.236068 14.074921
v 10.767458 -9.804226 14.449368
v 9.941042 -10.000000 13.294695
v 9.941042 -9.804226 14.530763
v 11.988835 -9.236068 15.238504
v 13.405616 -8.351141 15.479796
v 14.752357 -7.236068 15.106009
v 10.984998 -9.236068 15.543015
v 9.941042 -9.236068 15.645836
v 12.327482 -8.351141 16.056070
v 13.721268 -7.236068 15.952202
v 11.157639 -8.351141 16.410938
v 9.941042 -8.351141 16.530764
v 12.544907 -7.236068 16.580980
v 11.268480 -7.236068 16.968180
v 9.941042 -7.236068 17.098921
v -12.941042 -4.000000 17.294695
v -12.941042 -6.000000 17.294695
v -16.941042 -0.000000 13.294695
v -16.941042 -10.000000 13.294695
v -16.800451 -0.140590 14.345863
v -16.388565 -0.552477 15.323139
v -15.689163 -1.251879 16.201210
v -14.723096 -2.217946 16.875795
v -13.856356 -3.084687 17.188562
v -16.833118 -9.892076 14.217594
v -16.515171 -9.574129 15.090692
v -15.927251 -8.986209 15.956002
v -15.096909 -8.155867 16.664003
v -14.064156 -7.123114 17.133785
v 16.941042 -4.000000 -17.294695
v 16.941042 -4.000000 10.294695
v 16.941042 -6.000000 -17.294695
v 16.941042 -6.000000 10.294695
v 16.765537 -6.000000 11.852342
v 16.765537 -4.000000 11.852342
v 16.247824 -6.000000 13.331882
v 16.247824 -4.000000 13.331882
v 15.413862 -4.000000 14.659123
v 15.413862 -6.000000 14.659123
v 14.305470 -6.000000 15.767515
v 14.305470 -4.000000 15.767515
v 12.978229 -4.000000 16.601477
v 12.978229 -6.000000 16.601477
v 11.498689 -6.000000 17.119190
v 11.498689 -4.000000 17.119190
v 9.941042 -6.000000 17.294695
v 9.941042 -4.000000 17.294695
v 12.941042 0.000000 -17.294695
v 14.177110 -0.195774 10.294695
v 14.177110 -0.195774 -17.294695
v 12.941042 0.000000 10.294695
v 15.292183 -0.763932 10.294695
v 15.292183 -0.763932 -17.294695
v 16.177111 -1.648859 10.294695
v 16.177111 -1.648859 -17.294695
v 16.745268 -2.763932 10.294695
v 16.745268 -2.763932 -17.294695
v 14.177110 -9.804226 10.294695
v 12.941042 -10.000000 -17.294695
v 14.177110 -9.804226 -17.294695
v 12.941042 -10.000000 10.294695
v 15.292183 -9.236068 10.294695
v 15.292183 -9.236068 -17.294695
v 16.177111 -8.351141 10.294695
v 16.177111 -8.351141 -17.294695
v 16.745268 -7.236068 10.294695
v 16.745268 -7.236068 -17.294695
v -16.941042 -0.000000 -17.294695
v -16.941042 -10.000000 -17.294695
v 14.095716 -0.195774 11.121111
v 12.794211 0.000000 11.221746
v 13.854658 -0.195774 11.915768
v 12.368093 0.000000 12.058051
v 15.189363 -0.763932 11.338651
v 13.463203 -0.195774 12.648129
v 14.884851 -0.763932 12.342488
v 16.057285 -1.648859 11.511292
v 12.936395 -0.195774 13.290048
v 11.704398 0.000000 12.721746
v 14.390353 -0.763932 13.267630
v 15.702417 -1.648859 12.681135
v 16.614527 -2.763932 11.622133
v 12.294476 -0.195774 13.816856
v 13.724870 -0.763932 14.078523
v 15.126143 -1.648859 13.759269
v 16.227327 -2.763932 12.898560
v 11.562115 -0.195774 14.208311
v 10.868093 0.000000 13.147864
v 12.913977 -0.763932 14.744006
v 14.350608 -1.648859 14.704261
v 15.598549 -2.763932 14.074921
v 10.767458 -0.195774 14.449368
v 9.941042 0.000000 13.294695
v 9.941042 -0.195774 14.530763
v 11.988835 -0.763932 15.238504
v 13.405616 -1.648859 15.479796
v 14.752357 -2.763932 15.106009
v 10.984998 -0.763932 15.543015
v 9.941042 -0.763932 15.645836
v 12.327482 -1.648859 16.056070
v 13.721268 -2.763932 15.952202
v 11.157639 -1.648859 16.410938
v 9.941042 -1.648859 16.530764
v 12.544907 -2.763932 16.580980
v 11.268480 -2.763932 16.968180
v 9.941042 -2.763932 17.098921
v 14.095716 -9.804226 11.121111
v 12.794211 -10.000000 11.221746
v 13.854658 -9.804226 11.915768
v 12.368093 -10.000000 12.058051
v 15.189363 -9.236068 11.338651
v 13.463203 -9.804226 12.648129
v 14.884851 -9.236068 12.342488
v 16.057285 -8.351141 11.511292
v 12.936395 -9.804226 13.290048
v 11.704398 -10.000000 12.721746
v 14.390353 -9.236068 13.267630
v 15.702417 -8.351141 12.681135
v 16.614527 -7.236068 11.622133
v 12.294476 -9.804226 13.816856
v 13.724870 -9.236068 14.078523
v 15.126143 -8.351141 13.759269
v 16.227327 -7.236068 12.898560
v 11.562115 -9.804226 14.208311
v 10.868093 -10.000000 13.147864
v 12.913977 -9.236068 14.744006
v 14.350608 -8.351141 14.704261
v 15.598549 -7.236068 14.074921
v 10.767458 -9.804226 14.449368
v 9.941042 -10.000000 13.294695
v 9.941042 -9.804226 14.530763
v 11.988835 -9.236068 15.238504
v 13.405616 -8.351141 15.479796
v 14.752357 -7.236068 15.106009
v 10.984998 -9.236068 15.543015
v 9.941042 -9.236068 15.645836
v 12.327482 -8.351141 16.056070
v 13.721268 -7.236068 15.952202
v 11.157639 -8.351141 16.410938
v 9.941042 -8.351141 16.530764
v 12.544907 -7.236068 16.580980
v 11.268480 -7.236068 16.968180
v 9.941042 -7.236068 17.098921
v -12.941042 -4.000000 17.294695
v -12.941042 -6.000000 17.294695
v -16.941042 -0.000000 13.294695
v -16.941042 -10.000000 13.294695
v -16.800451 -0.140590 14.345863
v -16.388565 -0.552477 15.323139
v -15.689163 -1.251879 16.201210
v -14.723096 -2.217946 16.875795
v -13.856356 -3.084687 17.188562
v -16.833118 -9.892076 14.217594
v -16.515171 -9.574129 15.090692
v -15.927251 -8.986209 15.956002
v -15.096909 -8.155867 16.664003
v -14.064156 -7.123114 17.133785
vn 1.000000 0.000000 0.000000
vn 1.000000 0.000000 -0.000000
vn 0.993712 0.000000 0.111965
vn 0.993712 -0.000000 0.111965
vn 0.943883 -0.000000 0.330279
vn 0.846724 -0.000000 0.532032
vn 0.943883 0.000000 0.330279
vn 0.846724 -0.000000 0.532032
vn 0.707107 -0.000000 0.707107
vn 0.532032 -0.000000 0.846724
vn 0.707107 0.000000 0.707107
vn 0.532032 -0.000000 0.846724
vn 0.330279 -0.000000 0.943883
vn 0.330279 0.000000 0.943883
vn 0.111965 -0.000000 0.993712
vn 0.111965 0.000000 0.993712
vn 0.156434 0.987688 0.000000
vn 0.156434 0.987688 -0.000000
vn 0.453990 0.891006 0.000000
vn 0.453990 0.891006 0.000000
vn 0.707106 0.707107 0.000000
vn 0.707106 0.707107 0.000000
vn 0.891007 0.453990 0.000000
vn 0.891007 0.453990 0.000000
vn 0.987688 0.156435 0.000000
vn 0.987688 0.156435 0.000000
vn 0.156435 -0.987688 0.000000
vn 0.156435 -0.987688 0.000000
vn 0.453990 -0.891006 0.000000
vn 0.453990 -0.891006 0.000000
vn 0.707106 -0.707107 0.000000
vn 0.707106 -0.707107 0.000000
vn 0.891007 -0.453990 0.000000
vn 0.891007 -0.453990 0.000000
vn 0.987688 -0.156435 0.000000
vn 0.987688 -0.156435 0.000000
vn 0.000000 0.000000 -1.000000
vn 0.000000 0.000000 -1.000000
vn 0.000000 0.000000 -1.000000
vn 0.000000 0.000000 -1.000000
vn 0.000000 0.000000 -1.000000
vn 0.000000 0.000000 -1.000000
vn 0.000000 0.000000 -1.000000
vn 0.000000 0.000000 -1.000000
vn -0.000000 -0.000000 -1.000000
vn -0.000000 -0.000000 -1.000000
vn 0.000000 0.000000 -1.000000
vn 0.000000 0.000000 -1.000000
vn 0.156416 0.987571 0.015405
vn 0.150508 0.988321 0.023838
vn 0.136806 0.988142 0.069706
vn 0.152077 0.987292 0.046132
vn 0.453537 0.890117 0.044669
vn 0.453538 0.890117 0.044669
vn 0.137109 0.987841 0.073286
vn 0.436108 0.890117 0.132292
vn 0.436108 0.890117 0.132292
vn 0.705398 0.705398 0.069476
vn 0.705398 0.705398 0.069475
vn 0.107482 0.988380 0.107482
vn 0.122393 0.987386 0.100445
vn 0.401920 0.890117 0.214830
vn 0.401919 0.890117 0.214830
vn 0.678290 0.705398 0.205757
vn 0.678290 0.705398 0.205757
vn 0.887596 0.452252 0.087420
vn 0.983048 0.155700 0.096822
vn 0.983808 0.140837 0.110849
vn 0.887595 0.452253 0.087421
vn 0.100445 0.987386 0.122393
vn 0.352286 0.890117 0.289113
vn 0.352285 0.890117 0.289113
vn 0.625116 0.705398 0.334131
vn 0.625116 0.705398 0.334131
vn 0.935834 0.130315 0.327463
vn 0.943253 0.168527 0.286133
vn 0.853486 0.452253 0.258902
vn 0.853485 0.452253 0.258902
vn 0.069706 0.988142 0.136806
vn 0.073286 0.987841 0.137109
vn 0.289113 0.890117 0.352286
vn 0.289114 0.890117 0.352286
vn 0.547918 0.705398 0.449665
vn 0.547918 0.705398 0.449665
vn 0.449665 0.705398 0.547918
vn 0.840192 0.123977 0.527928
vn 0.867990 0.177038 0.463951
vn 0.786577 0.452252 0.420434
vn 0.786577 0.452253 0.420434
vn 0.023838 0.988321 0.150508
vn 0.015405 0.987571 0.156416
vn 0.046132 0.987292 0.152077
vn 0.214830 0.890117 0.401920
vn 0.214830 0.890117 0.401920
vn 0.132292 0.890117 0.436108
vn 0.449665 0.705398 0.547918
vn 0.701837 0.121861 0.701837
vn 0.689440 0.452253 0.565809
vn 0.760203 0.181280 0.623882
vn 0.689441 0.452252 0.565809
vn 0.132292 0.890117 0.436108
vn 0.044669 0.890117 0.453537
vn 0.044669 0.890117 0.453538
vn 0.334131 0.705398 0.625116
vn 0.334131 0.705398 0.625116
vn 0.565809 0.452252 0.689440
vn 0.527928 0.123977 0.840192
vn 0.565809 0.452253 0.689440
vn 0.623882 0.181280 0.760203
vn 0.069475 0.705398 0.705398
vn 0.205757 0.705398 0.678290
vn 0.069476 0.705398 0.705398
vn 0.205757 0.705398 0.678290
vn 0.420434 0.452252 0.786577
vn 0.463951 0.177038 0.867990
vn 0.327463 0.130315 0.935834
vn 0.420434 0.452253 0.786577
vn 0.258902 0.452253 0.853486
vn 0.258902 0.452253 0.853486
vn 0.087420 0.452252 0.887596
vn 0.096822 0.155700 0.983048
vn 0.087421 0.452253 0.887595
vn 0.286133 0.168527 0.943253
vn 0.110849 0.140837 0.983808
vn 0.156416 -0.987571 0.015406
vn 0.150508 -0.988321 0.023838
vn 0.136806 -0.988142 0.069706
vn 0.152077 -0.987291 0.046132
vn 0.453537 -0.890117 0.044669
vn 0.453537 -0.890117 0.044669
vn 0.137109 -0.987841 0.073286
vn 0.436108 -0.890117 0.132292
vn 0.436108 -0.890117 0.132292
vn 0.705398 -0.705398 0.069476
vn 0.705398 -0.705398 0.069475
vn 0.107482 -0.988380 0.107482
vn 0.122393 -0.987386 0.100445
vn 0.401920 -0.890117 0.214830
vn 0.401919 -0.890117 0.214830
vn 0.678290 -0.705398 0.205757
vn 0.678290 -0.705398 0.205757
vn 0.887596 -0.452252 0.087420
vn 0.983048 -0.155700 0.096822
vn 0.983808 -0.140837 0.110849
vn 0.887595 -0.452253 0.087421
vn 0.100445 -0.987386 0.122393
vn 0.352286 -0.890117 0.289113
vn 0.352285 -0.890117 0.289113
vn 0.625116 -0.705398 0.334131
vn 0.625116 -0.705398 0.334131
vn 0.935834 -0.130315 0.327463
vn 0.943253 -0.168527 0.286133
vn 0.853486 -0.452253 0.258902
vn 0.853485 -0.452252 0.258902
vn 0.069706 -0.988142 0.136806
vn 0.073286 -0.987841 0.137109
vn 0.289113 -0.890117 0.352286
vn 0.289114 -0.890117 0.352286
vn 0.547918 -0.705398 0.449665
vn 0.547918 -0.705398 0.449665
vn 0.449665 -0.705398 0.547918
vn 0.840192 -0.123977 0.527928
vn 0.867990 -0.177038 0.463951
vn 0.786577 -0.452252 0.420434
vn 0.786577 -0.452252 0.420434
vn 0.023838 -0.988321 0.150508
vn 0.015406 -0.987571 0.156416
vn 0.046132 -0.987291 0.152077
vn 0.214830 -0.890117 0.401920
vn 0.214830 -0.890117 0.401920
vn 0.132292 -0.890117 0.436108
vn 0.449665 -0.705398 0.547918
vn 0.701837 -0.121861 0.701837
vn 0.689440 -0.452253 0.565809
vn 0.760203 -0.181280 0.623882
vn 0.689441 -0.452252 0.565809
vn 0.132292 -0.890117 0.436108
vn 0.044669 -0.890117 0.453537
vn 0.044669 -0.890117 0.453537
vn 0.334131 -0.705398 0.625116
vn 0.334131 -0.705398 0.625116
vn 0.565809 -0.452252 0.689440
vn 0.527928 -0.123977 0.840192
vn 0.565809 -0.452253 0.689440
vn 0.623882 -0.181280 0.760203
vn 0.069475 -0.705398 0.705398
vn 0.205757 -0.705398 0.678290
vn 0.069476 -0.705398 0.705398
vn 0.205757 -0.705398 0.678290
vn 0.420434 -0.452252 0.786577
vn 0.463951 -0.177038 0.867990
vn 0.327463 -0.130315 0.935834
vn 0.420434 -0.452252 0.786577
vn 0.258902 -0.452253 0.853486
vn 0.258902 -0.452253 0.853486
vn 0.087420 -0.452252 0.887596
vn 0.096822 -0.155700 0.983048
vn 0.087421 -0.452253 0.887595
vn 0.286133 -0.168527 0.943253
vn 0.110849 -0.140837 0.983808
vn 0.000000 0.000000 1.000000
vn 0.000000 0.000000 1.000000
vn -0.000000 1.000000 -0.000000
vn -0.000000 1.000000 -0.000000
vn -0.000000 1.000000 0.000000
vn 0.000000 1.000000 0.000000
vn 0.000000 1.000000 0.000000
vn 0.000000 1.000000 0.000000
vn 0.000000 1.000000 0.000000
vn 0.000000 -1.000000 0.000000
vn 0.000000 -1.000000 0.000000
vn -0.000000 -1.000000 0.000000
vn 0.000000 -1.000000 0.000000
vn 0.000000 -1.000000 0.000000
vn 0.000000 -1.000000 0.000000
vn 0.000000 -1.000000 0.000000
vn -1.000000 -0.000000 0.000000
vn -1.000000 0.000000 0.000000
vn 0.000957 0.987688 0.156434
vn -0.000000 0.991174 0.132566
vn 0.001592 0.891005 0.453990
vn -0.000786 0.921381 0.388661
vn 0.001860 0.707106 0.707105
vn -0.001366 0.781663 0.623699
vn 0.001989 0.453989 0.891005
vn -0.001703 0.571370 0.820691
vn 0.001612 0.156434 0.987687
vn -0.001018 0.338529 0.940955
vn 0.000000 0.115180 0.993345
vn 0.001411 -0.987687 0.156434
vn 0.000000 -0.993232 0.116148
vn 0.001859 -0.891005 0.453990
vn -0.000923 -0.939527 0.342474
vn 0.001648 -0.707106 0.707105
vn -0.001240 -0.826752 0.562565
vn 0.001201 -0.453990 0.891006
vn -0.001004 -0.648242 0.761434
vn 0.000698 -0.156435 0.987688
vn -0.000624 -0.413541 0.910485
vn 0.000000 -0.141823 0.989892
vn -0.115180 0.000000 0.993345
vn -0.335458 0.004483 0.942045
vn -0.135480 -0.006467 0.990759
vn -0.568181 0.006419 0.822879
vn -0.408365 -0.006849 0.912793
vn -0.780550 0.004210 0.625079
vn -0.646327 -0.004296 0.763049
vn -0.921059 0.002892 0.389412
vn -0.826218 -0.002920 0.563343
vn -0.991145 0.001574 0.132773
vn -0.939475 -0.001359 0.342615
vn -0.993232 0.000000 0.116148
vn 1.000000 0.000000 -0.000000
vn 1.000000 0.000000 0.000000
vn 0.993712 0.000000 0.111965
vn 0.993712 -0.000000 0.111965
vn 0.943883 -0.000000 0.330279
vn 0.846724 -0.000000 0.532032
vn 0.943883 0.000000 0.330279
vn 0.846724 -0.000000 0.532032
vn 0.707107 -0.000000 0.707107
vn 0.532032 -0.000000 0.846724
vn 0.707107 0.000000 0.707107
vn 0.532032 -0.000000 0.846724
vn 0.330279 -0.000000 0.943883
vn 0.330279 0.000000 0.943883
vn 0.111965 -0.000000 0.993712
vn 0.111965 0.000000 0.993712
vn 0.156434 0.987688 0.000000
vn 0.156434 0.987688 -0.000000
vn 0.453990 0.891006 0.000000
vn 0.453990 0.891006 0.000000
vn 0.707106 0.707107 0.000000
vn 0.707106 0.707107 0.000000
vn 0.891007 0.453990 0.000000
vn 0.891007 0.453990 0.000000
vn 0.987688 0.156435 0.000000
vn 0.987688 0.156435 0.000000
vn 0.156435 -0.987688 0.000000
vn 0.156435 -0.987688 0.000000
vn 0.453990 -0.891006 0.000000
vn 0.453990 -0.891006 0.000000
vn 0.707106 -0.707107 0.000000
vn 0.707106 -0.707107 0.000000
vn 0.891007 -0.453990 0.000000
vn 0.891007 -0.453990 0.000000
vn 0.987688 -0.156435 0.000000
vn 0.987688 -0.156435 0.000000
vn 0.000000 0.000000 -1.000000
vn 0.000000 0.000000 -1.000000
vn 0.000000 0.000000 -1.000000
vn 0.000000 0.000000 -1.000000
vn 0.000000 0.000000 -1.000000
vn 0.000000 0.000000 -1.000000
vn 0.000000 0.000000 -1.000000
vn 0.000000 0.000000 -1.000000
vn -0.000000 -0.000000 -1.000000
vn -0.000000 -0.000000 -1.000000
vn 0.000000 0.000000 -1.000000
vn 0.000000 0.000000 -1.000000
vn 0.156416 0.987571 0.015405
vn 0.150508 0.988321 0.023838
vn 0.136806 0.988142 0.069706
vn 0.152077 0.987292 0.046132
vn 0.453537 0.890117 0.044669
vn 0.453538 0.890117 0.044669
vn 0.137109 0.987841 0.073286
vn 0.436108 0.890117 0.132292
vn 0.436108 0.890117 0.132292
vn 0.705398 0.705398 0.069476
vn 0.705398 0.705398 0.069475
vn 0.107482 0.988380 0.107482
vn 0.122393 0.987386 0.100445
vn 0.401920 0.890117 0.214830
vn 0.401919 0.890117 0.214830
vn 0.678290 0.705398 0.205757
vn 0.678290 0.705398 0.205757
vn 0.887596 0.452252 0.087420
vn 0.983048 0.155700 0.096822
vn 0.983808 0.140837 0.110849
vn 0.887595 0.452253 0.087421
vn 0.100445 0.987386 0.122393
vn 0.352286 0.890117 0.289113
vn 0.352285 0.890117 0.289113
vn 0.625116 0.705398 0.334131
vn 0.625116 0.705398 0.334131
vn 0.935834 0.130315 0.327463
vn 0.943253 0.168527 0.286133
vn 0.853486 0.452253 0.258902
vn 0.853485 0.452253 0.258902
vn 0.069706 0.988142 0.136806
vn 0.073286 0.987841 0.137109
vn 0.289113 0.890117 0.352286
vn 0.289114 0.890117 0.352286
vn 0.547918 0.705398 0.449665
vn 0.547918 0.705398 0.449665
vn 0.449665 0.705398 0.547918
vn 0.840192 0.123977 0.527928
vn 0.867990 0.177038 0.463951
vn 0.786577 0.452252 0.420434
vn 0.786577 0.452253 0.420434
vn 0.023838 0.988321 0.150508
vn 0.015405 0.987571 0.156416
vn 0.046132 0.987292 0.152077
vn 0.214830 0.890117 0.401920
vn 0.214830 0.890117 0.401920
vn 0.132292 0.890117 0.436108
vn 0.449665 0.705398 0.547918
vn 0.701837 0.121861 0.701837
vn 0.689440 0.452253 0.565809
vn 0.760203 0.181280 0.623882
vn 0.689441 0.452252 0.565809
vn 0.132292 0.890117 0.436108
vn 0.044669 0.890117 0.453537
vn 0.044669 0.890117 0.453538
vn 0.334131 0.705398 0.625116
vn 0.334131 0.705398 0.625116
vn 0.565809 0.452252 0.689440
vn 0.527928 0.123977 0.840192
vn 0.565809 0.452253 0.689440
vn 0.623882 0.181280 0.760203
vn 0.069475 0.705398 0.705398
vn 0.205757 0.705398 0.678290
vn 0.069476 0.705398 0.705398
vn 0.205757 0.705398 0.678290
vn 0.420434 0.452252 0.786577
vn 0.463951 0.177038 0.867990
vn 0.327463 0.130315 0.935834
vn 0.420434 0.452253 0.786577
vn 0.258902 0.452253 0.853486
vn 0.258902 0.452253 0.853486
vn 0.087420 0.452252 0.887596
vn 0.096822 0.155700 0.983048
vn 0.087421 0.452253 0.887595
vn 0.286133 0.168527 0.943253
vn 0.110849 0.140837 0.983808
vn 0.156416 -0.987571 0.015406
vn 0.150508 -0.988321 0.023838
vn 0.136806 -0.988142 0.069706
vn 0.152077 -0.987291 0.046132
vn 0.453537 -0.890117 0.044669
vn 0.453537 -0.890117 0.044669
vn 0.137109 -0.987841 0.073286
vn 0.436108 -0.890117 0.132292
vn 0.436108 -0.890117 0.132292
vn 0.705398 -0.705398 0.069476
vn 0.705398 -0.705398 0.069475
vn 0.107482 -0.988380 0.107482
vn 0.122393 -0.987386 0.100445
vn 0.401920 -0.890117 0.214830
vn 0.401919 -0.890117 0.214830
vn 0.678290 -0.705398 0.205757
vn 0.678290 -0.705398 0.205757
vn 0.887596 -0.452252 0.087420
vn 0.983048 -0.155700 0.096822
vn 0.983808 -0.140837 0.110849
vn 0.887595 -0.452253 0.087421
vn 0.100445 -0.987386 0.122393
vn 0.352286 -0.890117 0.289113
vn 0.352285 -0.890117 0.289113
vn 0.625116 -0.705398 0.334131
vn 0.625116 -0.705398 0.334131
vn 0.935834 -0.130315 0.327463
vn 0.943253 -0.168527 0.286133
vn 0.853486 -0.452253 0.258902
vn 0.853485 -0.452252 0.258902
vn 0.069706 -0.988142 0.136806
vn 0.073286 -0.987841 0.137109
vn 0.289113 -0.890117 0.352286
vn 0.289114 -0.890117 0.352286
vn 0.547918 -0.705398 0.449665
vn 0.547918 -0.705398 0.449665
vn 0.449665 -0.705398 0.547918
vn 0.840192 -0.123977 0.527928
vn 0.867990 -0.177038 0.463951
vn 0.786577 -0.452252 0.420434
vn 0.786577 -0.452252 0.420434
vn 0.023838 -0.988321 0.150508
vn 0.015406 -0.987571 0.156416
vn 0.046132 -0.987291 0.152077
vn 0.214830 -0.890117 0.401920
vn 0.214830 -0.890117 0.401920
vn 0.132292 -0.890117 0.436108
vn 0.449665 -0.705398 0.547918
vn 0.701837 -0.121861 0.701837
vn 0.689440 -0.452253 0.565809
vn 0.760203 -0.181280 0.623882
vn 0.689441 -0.452252 0.565809
vn 0.132292 -0.890117 0.436108
vn 0.044669 -0.890117 0.453537
vn 0.044669 -0.890117 0.453537
vn 0.334131 -0.705398 0.625116
vn 0.334131 -0.705398 0.625116
vn 0.565809 -0.452252 0.689440
vn 0.527928 -0.123977 0.840192
vn 0.565809 -0.452253 0.689440
vn 0.623882 -0.181280 0.760203
vn 0.069475 -0.705398 0.705398
vn 0.205757 -0.705398 0.678290
vn 0.069476 -0.705398 0.705398
vn 0.205757 -0.705398 0.678290
vn 0.420434 -0.452252 0.786577
vn 0.463951 -0.177038 0.867990
vn 0.327463 -0.130315 0.935834
vn 0.420434 -0.452252 0.786577
vn 0.258902 -0.452253 0.853486
vn 0.258902 -0.452253 0.853486
vn 0.087420 -0.452252 0.887596
vn 0.096822 -0.155700 0.983048
vn 0.087421 -0.452253 0.887595
vn 0.286133 -0.168527 0.943253
vn 0.110849 -0.140837 0.983808
vn 0.000000 0.000000 1.000000
vn 0.000000 0.000000 1.000000
vn -0.000000 1.000000 -0.000000
vn -0.000000 1.000000 -0.000000
vn -0.000000 1.000000 0.000000
vn 0.000000 1.000000 0.000000
vn 0.000000 1.000000 0.000000
vn 0.000000 1.000000 0.000000
vn 0.000000 1.000000 0.000000
vn 0.000000 -1.000000 0.000000
vn 0.000000 -1.000000 0.000000
vn -0.000000 -1.000000 0.000000
vn 0.000000 -1.000000 0.000000
vn 0.000000 -1.000000 0.000000
vn 0.000000 -1.000000 0.000000
vn 0.000000 -1.000000 0.000000
vn -1.000000 -0.000000 0.000000
vn -1.000000 0.000000 0.000000
vn 0.000957 0.987688 0.156434
vn -0.000000 0.991174 0.132566
vn 0.001592 0.891005 0.453990
vn -0.000786 0.921381 0.388661
vn 0.001860 0.707106 0.707105
vn -0.001366 0.781663 0.623699
vn 0.001989 0.453989 0.891005
vn -0.001703 0.571370 0.820691
vn 0.001612 0.156434 0.987687
vn -0.001018 0.338529 0.940955
vn 0.000000 0.115180 0.993345
vn 0.001411 -0.987687 0.156434
vn 0.000000 -0.993232 0.116148
vn 0.001859 -0.891005 0.453990
vn -0.000923 -0.939527 0.342474
vn 0.001648 -0.707106 0.707105
vn -0.001240 -0.826752 0.562565
vn 0.001201 -0.453990 0.891006
vn -0.001004 -0.648242 0.761434
vn 0.000698 -0.156435 0.987688
vn -0.000624 -0.413541 0.910485
vn 0.000000 -0.141823 0.989892
vn -0.115180 0.000000 0.993345
vn -0.335458 0.004483 0.942045
vn -0.135480 -0.006467 0.990759
vn -0.568181 0.006419 0.822879
vn -0.408365 -0.006849 0.912793
vn -0.780550 0.004210 0.625079
vn -0.646327 -0.004296 0.763049
vn -0.921059 0.002892 0.389412
vn -0.826218 -0.002920 0.563343
vn -0.991145 0.001574 0.132773
vn -0.939475 -0.001359 0.342615
vn -0.993232 0.000000 0.116148
g MeshExport
f 1//1 2//1 3//1
f 1//2 4//2 2//2
f 5//3 2//3 4//3
f 5//4 4//4 6//4
f 7//5 6//5 8//5
f 7//6 8//6 9//6
f 7//7 5//7 6//7
f 10//8 7//8 9//8
f 11//9 9//9 12//9
f 11//10 12//10 13//10
f 11//11 10//11 9//11
f 14//12 11//12 13//12
f 15//13 13//13 16//13
f 15//14 14//14 13//14
f 17//15 16//15 18//15
f 17//16 15//16 16//16
f 19//17 20//17 21//17
f 22//18 20//18 19//18
f 21//19 23//19 24//19
f 20//20 23//20 21//20
f 24//21 25//21 26//21
f 23//22 25//22 24//22
f 26//23 27//23 28//23
f 25//24 27//24 26//24
f 28//25 4//25 1//25
f 27//26 4//26 28//26
f 29//27 30//27 31//27
f 29//28 32//28 30//28
f 33//29 31//29 34//29
f 33//30 29//30 31//30
f 35//31 34//31 36//31
f 35//32 33//32 34//32
f 37//33 36//33 38//33
f 37//34 35//34 36//34
f 2//35 38//35 3//35
f 2//36 37//36 38//36
f 30//37 3//37 31//37
f 31//38 3//38 34//38
f 34//39 3//39 36//39
f 36//40 3//40 38//40
f 39//41 19//41 40//41
f 40//42 19//42 30//42
f 30//43 1//43 3//43
f 19//44 1//44 30//44
f 21//45 26//45 19//45
f 24//46 26//46 21//46
f 1//47 26//47 28//47
f 19//48 26//48 1//48
f 41//49 20//49 22//49
f 41//50 22//50 42//50
f 43//51 42//51 44//51
f 43//52 41//52 42//52
f 45//53 23//53 20//53
f 45//54 20//54 41//54
f 46//55 43//55 44//55
f 47//56 45//56 41//56
f 47//57 41//57 43//57
f 48//58 25//58 23//58
f 48//59 23//59 45//59
f 49//60 44//60 50//60
f 49//61 46//61 44//61
f 51//62 43//62 46//62
f 51//63 47//63 43//63
f 52//64 48//64 45//64
f 52//65 45//65 47//65
f 53//66 27//66 25//66
f 53//67 4//67 27//67
f 53//68 6//68 4//68
f 53//69 25//69 48//69
f 54//70 49//70 50//70
f 55//71 46//71 49//71
f 55//72 51//72 46//72
f 56//73 47//73 51//73
f 56//74 52//74 47//74
f 57//75 8//75 6//75
f 57//76 6//76 53//76
f 57//77 48//77 52//77
f 57//78 53//78 48//78
f 58//79 50//79 59//79
f 58//80 54//80 50//80
f 60//81 49//81 54//81
f 60//82 55//82 49//82
f 61//83 51//83 55//83
f 61//84 56//84 51//84
f 61//85 55//85 60//85
f 62//86 9//86 8//86
f 62//87 8//87 57//87
f 62//88 52//88 56//88
f 62//89 57//89 52//89
f 63//90 59//90 64//90
f 63//91 64//91 65//91
f 63//92 58//92 59//92
f 66//93 54//93 58//93
f 66//94 60//94 54//94
f 66//95 58//95 63//95
f 67//96 61//96 60//96
f 68//97 12//97 9//97
f 68//98 56//98 61//98
f 68//99 9//99 62//99
f 68//100 62//100 56//100
f 69//101 66//101 63//101
f 69//102 65//102 70//102
f 69//103 63//103 65//103
f 71//104 67//104 60//104
f 71//105 60//105 66//105
f 72//106 61//106 67//106
f 72//107 13//107 12//107
f 72//108 68//108 61//108
f 72//109 12//109 68//109
f 73//110 69//110 70//110
f 73//111 71//111 66//111
f 73//112 70//112 74//112
f 73//113 66//113 69//113
f 75//114 72//114 67//114
f 75//115 13//115 72//115
f 75//116 16//116 13//116
f 75//117 67//117 71//117
f 76//118 71//118 73//118
f 76//119 75//119 71//119
f 76//120 74//120 77//120
f 76//121 77//121 18//121
f 76//122 73//122 74//122
f 76//123 16//123 75//123
f 76//124 18//124 16//124
f 29//125 78//125 32//125
f 32//126 78//126 79//126
f 79//127 80//127 81//127
f 78//128 80//128 79//128
f 33//129 82//129 29//129
f 29//130 82//130 78//130
f 80//131 83//131 81//131
f 82//132 84//132 78//132
f 78//133 84//133 80//133
f 35//134 85//134 33//134
f 33//135 85//135 82//135
f 81//136 86//136 87//136
f 83//137 86//137 81//137
f 80//138 88//138 83//138
f 84//139 88//139 80//139
f 85//140 89//140 82//140
f 82//141 89//141 84//141
f 37//142 90//142 35//142
f 2//143 90//143 37//143
f 5//144 90//144 2//144
f 35//145 90//145 85//145
f 86//146 91//146 87//146
f 83//147 92//147 86//147
f 88//148 92//148 83//148
f 84//149 93//149 88//149
f 89//150 93//150 84//150
f 7//151 94//151 5//151
f 5//152 94//152 90//152
f 85//153 94//153 89//153
f 90//154 94//154 85//154
f 87//155 95//155 96//155
f 91//156 95//156 87//156
f 86//157 97//157 91//157
f 92//158 97//158 86//158
f 88//159 98//159 92//159
f 93//160 98//160 88//160
f 92//161 98//161 97//161
f 10//162 99//162 7//162
f 7//163 99//163 94//163
f 89//164 99//164 93//164
f 94//165 99//165 89//165
f 96//166 100//166 101//166
f 101//167 100//167 102//167
f 95//168 100//168 96//168
f 91//169 103//169 95//169
f 97//170 103//170 91//170
f 95//171 103//171 100//171
f 98//172 104//172 97//172
f 11//173 105//173 10//173
f 93//174 105//174 98//174
f 10//175 105//175 99//175
f 99//176 105//176 93//176
f 103//177 106//177 100//177
f 102//178 106//178 107//178
f 100//179 106//179 102//179
f 104//180 108//180 97//180
f 97//181 108//181 103//181
f 98//182 109//182 104//182
f 14//183 109//183 11//183
f 105//184 109//184 98//184
f 11//185 109//185 105//185
f 106//186 110//186 107//186
f 108//187 110//187 103//187
f 107//188 110//188 111//188
f 103//189 110//189 106//189
f 109//190 112//190 104//190
f 14//191 112//191 109//191
f 15//192 112//192 14//192
f 104//193 112//193 108//193
f 108//194 113//194 110//194
f 112//195 113//195 108//195
f 111//196 113//196 114//196
f 114//197 113//197 17//197
f 110//198 113//198 111//198
f 15//199 113//199 112//199
f 17//200 113//200 15//200
f 18//201 115//201 17//201
f 17//202 115//202 116//202
f 64//203 39//203 117//203
f 22//204 19//204 39//204
f 22//205 39//205 64//205
f 50//206 42//206 22//206
f 50//207 64//207 59//207
f 50//208 22//208 64//208
f 44//209 42//209 50//209
f 30//210 32//210 40//210
f 40//211 101//211 118//211
f 32//212 101//212 40//212
f 32//213 79//213 101//213
f 96//214 81//214 87//214
f 101//215 81//215 96//215
f 79//216 81//216 101//216
f 117//217 40//217 118//217
f 117//218 39//218 40//218
f 64//219 119//219 65//219
f 117//220 119//220 64//220
f 65//221 120//221 70//221
f 119//222 120//222 65//222
f 70//223 121//223 74//223
f 120//224 121//224 70//224
f 74//225 122//225 77//225
f 121//226 122//226 74//226
f 77//227 123//227 18//227
f 122//228 123//228 77//228
f 123//229 115//229 18//229
f 124//230 101//230 102//230
f 124//231 118//231 101//231
f 125//232 102//232 107//232
f 125//233 124//233 102//233
f 126//234 107//234 111//234
f 126//235 125//235 107//235
f 127//236 111//236 114//236
f 127//237 126//237 111//237
f 128//238 114//238 17//238
f 128//239 127//239 114//239
f 116//240 128//240 17//240
f 123//241 116//241 115//241
f 128//242 123//242 122//242
f 128//243 116//243 123//243
f 127//244 122//244 121//244
f 127//245 128//245 122//245
f 126//246 121//246 120//246
f 126//247 127//247 121//247
f 125//248 120//248 119//248
f 125//249 126//249 120//249
f 124//250 119//250 117//250
f 124//251 125//251 119//251
f 118//252 124//252 117//252
g MeshExport001
g MeshExport002
g MeshExport003
g MeshExport004
g MeshExport005
g MeshExport006
g MeshExport007
g MeshExport008
f 129//253 130//253 131//253
f 131//254 130//254 132//254
f 133//255 132//255 130//255
f 133//256 130//256 134//256
f 135//257 134//257 136//257
f 135//258 136//258 137//258
f 135//259 133//259 134//259
f 138//260 135//260 137//260
f 139//261 137//261 140//261
f 139//262 140//262 141//262
f 139//263 138//263 137//263
f 142//264 139//264 141//264
f 143//265 141//265 144//265
f 143//266 142//266 141//266
f 145//267 144//267 146//267
f 145//268 143//268 144//268
f 147//269 148//269 149//269
f 150//270 148//270 147//270
f 149//271 151//271 152//271
f 148//272 151//272 149//272
f 152//273 153//273 154//273
f 151//274 153//274 152//274
f 154//275 155//275 156//275
f 153//276 155//276 154//276
f 156//277 130//277 129//277
f 155//278 130//278 156//278
f 157//279 158//279 159//279
f 157//280 160//280 158//280
f 161//281 159//281 162//281
f 161//282 157//282 159//282
f 163//283 162//283 164//283
f 163//284 161//284 162//284
f 165//285 164//285 166//285
f 165//286 163//286 164//286
f 132//287 166//287 131//287
f 132//288 165//288 166//288
f 158//289 131//289 159//289
f 159//290 131//290 162//290
f 162//291 131//291 164//291
f 164//292 131//292 166//292
f 167//293 147//293 168//293
f 168//294 147//294 158//294
f 158//295 129//295 131//295
f 147//296 129//296 158//296
f 149//297 154//297 147//297
f 152//298 154//298 149//298
f 129//299 154//299 156//299
f 147//300 154//300 129//300
f 169//301 148//301 150//301
f 169//302 150//302 170//302
f 171//303 170//303 172//303
f 171//304 169//304 170//304
f 173//305 151//305 148//305
f 173//306 148//306 169//306
f 174//307 171//307 172//307
f 175//308 173//308 169//308
f 175//309 169//309 171//309
f 176//310 153//310 151//310
f 176//311 151//311 173//311
f 177//312 172//312 178//312
f 177//313 174//313 172//313
f 179//314 171//314 174//314
f 179//315 175//315 171//315
f 180//316 176//316 173//316
f 180//317 173//317 175//317
f 181//318 155//318 153//318
f 181//319 130//319 155//319
f 181//320 134//320 130//320
f 181//321 153//321 176//321
f 182//322 177//322 178//322
f 183//323 174//323 177//323
f 183//324 179//324 174//324
f 184//325 175//325 179//325
f 184//326 180//326 175//326
f 185//327 136//327 134//327
f 185//328 134//328 181//328
f 185//329 176//329 180//329
f 185//330 181//330 176//330
f 186//331 178//331 187//331
f 186//332 182//332 178//332
f 188//333 177//333 182//333
f 188//334 183//334 177//334
f 189//335 179//335 183//335
f 189//336 184//336 179//336
f 189//337 183//337 188//337
f 190//338 137//338 136//338
f 190//339 136//339 185//339
f 190//340 180//340 184//340
f 190//341 185//341 180//341
f 191//342 187//342 192//342
f 191//343 192//343 193//343
f 191//344 186//344 187//344
f 194//345 182//345 186//345
f 194//346 188//346 182//346
f 194//347 186//347 191//347
f 195//348 189//348 188//348
f 196//349 140//349 137//349
f 196//350 184//350 189//350
f 196//351 137//351 190//351
f 196//352 190//352 184//352
f 197//353 194//353 191//353
f 197//354 193//354 198//354
f 197//355 191//355 193//355
f 199//356 195//356 188//356
f 199//357 188//357 194//357
f 200//358 189//358 195//358
f 200//359 141//359 140//359
f 200//360 196//360 189//360
f 200//361 140//361 196//361
f 201//362 197//362 198//362
f 201//363 199//363 194//363
f 201//364 198//364 202//364
f 201//365 194//365 197//365
f 203//366 200//366 195//366
f 203//367 141//367 200//367
f 203//368 144//368 141//368
f 203//369 195//369 199//369
f 204//370 199//370 201//370
f 204//371 203//371 199//371
f 204//372 202//372 205//372
f 204//373 205//373 146//373
f 204//374 201//374 202//374
f 204//375 144//375 203//375
f 204//376 146//376 144//376
f 157//377 206//377 160//377
f 160//378 206//378 207//378
f 207//379 208//379 209//379
f 206//380 208//380 207//380
f 161//381 210//381 157//381
f 157//382 210//382 206//382
f 208//383 211//383 209//383
f 210//384 212//384 206//384
f 206//385 212//385 208//385
f 163//386 213//386 161//386
f 161//387 213//387 210//387
f 209//388 214//388 215//388
f 211//389 214//389 209//389
f 208//390 216//390 211//390
f 212//391 216//391 208//391
f 213//392 217//392 210//392
f 210//393 217//393 212//393
f 165//394 218//394 163//394
f 132//395 218//395 165//395
f 133//396 218//396 132//396
f 163//397 218//397 213//397
f 214//398 219//398 215//398
f 211//399 220//399 214//399
f 216//400 220//400 211//400
f 212//401 221//401 216//401
f 217//402 221//402 212//402
f 135//403 222//403 133//403
f 133//404 222//404 218//404
f 213//405 222//405 217//405
f 218//406 222//406 213//406
f 215//407 223//407 224//407
f 219//408 223//408 215//408
f 214//409 225//409 219//409
f 220//410 225//410 214//410
f 216//411 226//411 220//411
f 221//412 226//412 216//412
f 220//413 226//413 225//413
f 138//414 227//414 135//414
f 135//415 227//415 222//415
f 217//416 227//416 221//416
f 222//417 227//417 217//417
f 224//418 228//418 229//418
f 229//419 228//419 230//419
f 223//420 228//420 224//420
f 219//421 231//421 223//421
f 225//422 231//422 219//422
f 223//423 231//423 228//423
f 226//424 232//424 225//424
f 139//425 233//425 138//425
f 221//426 233//426 226//426
f 138//427 233//427 227//427
f 227//428 233//428 221//428
f 231//429 234//429 228//429
f 230//430 234//430 235//430
f 228//431 234//431 230//431
f 232//432 236//432 225//432
f 225//433 236//433 231//433
f 226//434 237//434 232//434
f 142//435 237//435 139//435
f 233//436 237//436 226//436
f 139//437 237//437 233//437
f 234//438 238//438 235//438
f 236//439 238//439 231//439
f 235//440 238//440 239//440
f 231//441 238//441 234//441
f 237//442 240//442 232//442
f 142//443 240//443 237//443
f 143//444 240//444 142//444
f 232//445 240//445 236//445
f 236//446 241//446 238//446
f 240//447 241//447 236//447
f 239//448 241//448 242//448
f 242//449 241//449 145//449
f 238//450 241//450 239//450
f 143//451 241//451 240//451
f 145//452 241//452 143//452
f 146//453 243//453 145//453
f 145//454 243//454 244//454
f 192//455 167//455 245//455
f 150//456 147//456 167//456
f 150//457 167//457 192//457
f 178//458 170//458 150//458
f 178//459 192//459 187//459
f 178//460 150//460 192//460
f 172//461 170//461 178//461
f 158//462 160//462 168//462
f 168//463 229//463 246//463
f 160//464 229//464 168//464
f 160//465 207//465 229//465
f 224//466 209//466 215//466
f 229//467 209//467 224//467
f 207//468 209//468 229//468
f 245//469 168//469 246//469
f 245//470 167//470 168//470
f 192//471 247//471 193//471
f 245//472 247//472 192//472
f 193//473 248//473 198//473
f 247//474 248//474 193//474
f 198//475 249//475 202//475
f 248//476 249//476 198//476
f 202//477 250//477 205//477
f 249//478 250//478 202//478
f 205//479 251//479 146//479
f 250//480 251//480 205//480
f 251//481 243//481 146//481
f 252//482 229//482 230//482
f 252//483 246//483 229//483
f 253//484 230//484 235//484
f 253//485 252//485 230//485
f 254//486 235//486 239//486
f 254//487 253//487 235//487
f 255//488 239//488 242//488
f 255//489 254//489 239//489
f 256//490 242//490 145//490
f 256//491 255//491 242//491
f 244//492 256//492 145//492
f 251//493 244//493 243//493
f 256//494 251//494 250//494
f 256//495 244//495 251//495
f 255//496 250//496 249//496
f 255//497 256//497 250//497
f 254//498 249//498 248//498
f 254//499 255//499 249//499
f 253//500 248//500 247//500
f 253//501 254//501 248//501
f 252//502 247//502 245//502
f 252//503 253//503 247//503
f 246//504 252//504 245//504
